<svg width="128" height="128" viewBox="0 0 128 128" fill="none" xmlns="http://www.w3.org/2000/svg">
<path d="M33.8569 29.6207C33.0153 27.4409 30.8764 26.0705 28.7902 25.0157C26.9522 24.0836 24.9565 23.2566 22.8995 23.3998C20.6349 23.5547 18.5866 24.8842 17.0526 26.5585C14.3001 29.5623 12.956 33.9072 13.8969 37.8724C14.8377 41.8375 18.1921 45.2153 22.2186 45.8377C23.2326 42.5563 24.3867 39.2808 26.21 36.3675C28.0334 33.4543 30.5872 30.9035 33.8539 29.6207H33.8569Z" fill="#6B3519"/>
<path d="M84.4188 27.1224C79.764 22.459 72.69 21.3252 66.1097 21.0243C58.8193 20.6912 51.4209 21.0973 44.4257 23.1778C37.4305 25.2611 30.8327 29.1152 26.2832 34.8189C21.9119 40.3005 19.6561 47.1146 16.775 53.5078C13.894 59.9011 9.97562 66.3119 3.70799 69.456C5.26248 69.6547 6.81404 69.8505 8.36853 70.0491C4.91183 71.9601 1.98402 74.8236 0 78.2394C2.1944 77.0093 4.3888 75.7791 6.58028 74.549C3.3515 79.2241 2.60932 85.5181 4.66347 90.8185C4.0031 88.4371 5.37351 85.67 7.66726 84.7496C6.08063 88.1712 6.91923 92.56 9.6542 95.1547C9.25973 93.834 9.44382 92.3526 10.148 91.1692C12.6375 96.1044 17.301 99.6809 22.3736 101.875C27.4461 104.07 32.9599 105.022 38.4269 105.849C48.6333 107.389 58.9654 108.549 69.2625 107.833C79.5595 107.117 89.8828 104.438 98.5319 98.8072C106.915 93.349 116.596 86.082 115.202 76.1765C114.67 72.3955 113.592 70.1076 111.923 66.6713C110.906 64.5763 104.721 60.354 103.704 58.259C101.734 54.2004 101.594 48.9262 99.5224 44.9202C97.144 40.321 94.6048 35.7481 91.1919 31.8531C87.779 27.9581 83.4048 24.7439 84.4129 27.1137L84.4188 27.1224Z" fill="#663519"/>
<path d="M80.027 24.855C80.5062 22.3976 82.9869 20.5655 85.4911 20.6298C87.9952 20.6941 90.2977 22.5174 91.1392 24.8725C91.9808 27.2305 91.4198 29.9801 89.8916 31.9641C87.5861 28.2152 83.5275 26.3481 80.0299 24.855H80.027Z" fill="#6B3519"/>
<path d="M74.0691 68.1703C70.5306 64.4156 68.5875 59.5008 66.3668 54.8578C64.1461 50.2148 61.3644 45.5162 56.8762 42.9566C50.7225 39.4473 42.3657 41.0544 37.2785 45.9691C32.1943 50.8839 30.2716 58.5044 30.7859 66.0373C23.2472 66.5544 15.9803 70.242 11.1385 76.0099C13.5609 74.9931 16.1673 74.4116 18.7941 74.2977C15.0744 76.384 12.4067 80.2293 11.7668 84.4252C12.506 83.1951 13.8998 82.3799 15.3404 82.3331C15.203 85.6232 15.0657 88.9163 14.9254 92.2065C15.6004 90.8565 16.7312 89.7374 18.0958 89.0741C18.7678 93.6265 19.8957 98.1147 21.5934 101.817C28.7405 106.261 50.5034 110.109 65.8262 108.079C60.2686 102.521 57.7324 94.1437 59.2839 86.4619C60.8355 78.78 66.4281 72.0244 74.0691 68.1703Z" fill="#A1582E"/>
<path d="M106.751 92.7207C109.594 89.8689 112.344 86.8242 114.056 83.1834C115.769 79.5426 115.792 73.4737 113.378 68.5969C111.611 65.0233 107.897 62.8844 106.103 60.9501C104.513 59.2378 103.298 56.4882 102.1 52.5027C101.153 49.3586 100.948 48.8765 99.9169 45.7587C98.8855 42.641 94.7713 35.6955 92.276 34.0738C89.5235 32.2855 85.7833 33.577 84.2084 36.461C83.1127 38.4684 83.4633 40.9229 83.8461 43.1757C85.1902 51.1147 86.5343 59.0508 87.8784 66.9898C93.4214 69.1842 98.865 72.1763 102.497 76.9041C106.129 81.6318 107.572 88.402 106.751 92.7236V92.7207Z" fill="#A0572D"/>
<path d="M49.7817 69.2105C53.0576 69.2105 55.7133 66.3495 55.7133 62.8202C55.7133 59.2909 53.0576 56.4298 49.7817 56.4298C46.5058 56.4298 43.8501 59.2909 43.8501 62.8202C43.8501 66.3495 46.5058 69.2105 49.7817 69.2105Z" fill="black"/>
<path d="M95.0898 65.4265C97.88 65.4265 100.142 62.9749 100.142 59.9508C100.142 56.9266 97.88 54.475 95.0898 54.475C92.2996 54.475 90.0377 56.9266 90.0377 59.9508C90.0377 62.9749 92.2996 65.4265 95.0898 65.4265Z" fill="black"/>
<path d="M104.645 94.6346C108.519 91.9522 110.196 86.7277 109.258 82.1081C108.321 77.4884 105.08 73.5438 101.074 71.063C97.068 68.5823 92.3549 67.4427 87.6593 67.0249C79.3725 66.2885 70.8053 67.7612 63.5413 71.8169C56.2772 75.8726 50.4128 82.599 47.9876 90.5555C46.8889 94.1671 46.5325 98.2257 48.2155 101.606C49.9833 105.154 53.7556 107.369 57.633 108.178C61.5105 108.987 65.5311 108.575 69.4583 108.049C82.8205 106.267 95.2885 101.104 104.639 94.6346H104.645Z" fill="#FCE6CB"/>
<path d="M49.7934 27.0464C56.4642 27.3182 63.0095 30.0473 67.8979 34.5939C67.4888 31.7713 65.8496 29.1473 63.4887 27.5432C64.9175 27.7068 66.2879 28.3467 67.3281 29.3373C67.1236 28.4431 66.7028 27.6016 66.1068 26.9062C68.3888 27.137 70.5569 28.3379 71.9653 30.1525C71.5066 28.8434 70.7877 27.6279 69.8615 26.5935C71.7345 27.1399 73.4029 28.3613 74.4928 29.9801C74.8201 28.5951 74.4724 27.0669 73.5753 25.9624C75.7376 26.4971 77.7158 27.7419 79.1271 29.4629C78.8758 28.7383 78.6216 28.0136 78.3703 27.289C80.0241 27.9756 81.5552 28.9574 82.8672 30.1788C80.8978 26.3189 77.0349 23.7563 73.0289 22.1083C69.02 20.4603 64.7422 19.5574 60.6982 18C61.7472 19.0461 62.5186 20.3668 62.9189 21.7927C59.7018 19.5983 55.7659 18.4821 51.8767 18.6574C53.8841 19.5399 55.5964 21.071 56.7009 22.9644C54.1676 21.1119 50.857 20.358 47.7714 20.9337C49.5158 21.1148 51.1521 22.1317 52.09 23.6131C50.7868 23.4027 49.4047 23.7358 48.3382 24.516C49.6502 24.8666 50.895 25.4627 51.9878 26.2663C51.006 26.0851 49.9512 26.3627 49.7904 27.0523L49.7934 27.0464Z" fill="#6A361B"/>
<path d="M86.7272 79.7764C88.4307 78.5433 90.1838 77.2489 91.2124 75.4168C92.2409 73.5818 92.3286 71.0426 90.8442 69.5553C89.5936 68.3047 87.6563 68.1294 85.8886 68.0271C82.5195 67.8314 79.0278 67.6531 75.8837 68.8774C74.338 69.4794 72.8273 70.5283 72.3101 72.1062C71.717 73.9091 72.5906 75.9019 73.8617 77.3102C76.9444 80.729 83.0396 82.4529 86.7272 79.7793V79.7764Z" fill="#2C201D"/>
<path opacity="0.2" d="M85.0529 87.3005C83.6941 93.1415 77.7362 97.0131 71.7842 97.7641C65.8321 98.515 59.8713 96.7794 54.1734 94.9035C52.1923 94.2519 49.7437 93.6733 48.2447 95.1197C46.6493 96.6596 47.3331 100.403 48.5691 102.243C51.5729 106.714 54.6731 107.985 60.032 108.529C65.3909 109.072 73.0552 108.084 78.2184 106.548C86.2801 104.146 92.276 102.29 99.5809 98.1235C101.135 97.2381 104.487 94.8216 105.679 93.4863C106.874 92.1539 109.399 89.5124 109.153 87.7388C106.088 90.7104 99.9637 93.1006 95.7122 92.6915C91.4637 92.2824 87.4401 89.9303 85.0499 87.3005H85.0529Z" fill="#A18F85"/>
<path opacity="0.69" d="M29.4125 33.7319C29.094 31.7216 27.7499 29.8808 25.8945 29.0392C24.039 28.1977 21.7277 28.4169 20.1119 29.6558C18.496 30.8947 17.6837 33.1242 18.198 35.0936C18.5545 36.4581 19.4778 37.6182 20.5736 38.5064C21.6693 39.3947 22.9345 40.0405 24.191 40.6804C23.8374 39.8944 23.6738 39.0236 23.7235 38.1617C24.1471 37.9746 24.6848 38.0769 25.0091 38.4071C24.8396 37.7409 24.6702 37.0747 24.5007 36.4114L25.6373 36.5487C25.0734 35.7013 24.7637 34.6874 24.752 33.6706C26.3211 33.057 28.2233 33.4047 29.4067 33.7319H29.4125Z" fill="#A0572D"/>
<path opacity="0.69" d="M87.7556 30.4418C87.8696 28.8318 87.9748 27.1633 87.4108 25.6527C87.215 25.1267 86.9141 24.6037 86.4261 24.3261C85.757 23.9462 84.8804 24.1303 84.2493 24.5745C83.6181 25.0186 83.1827 25.679 82.759 26.3247C84.6174 27.5052 86.3034 28.9545 87.7556 30.4447V30.4418Z" fill="#A0572D"/>
<path d="M98.6108 74.3532C105.215 68.3748 113.916 64.6668 122.805 64.0503C114.056 65.5142 105.729 69.0586 98.6108 74.3532Z" fill="black"/>
<path d="M101.135 77.4154C109.551 73.9237 119.027 72.8834 128 74.473C118.948 73.7337 109.814 74.7331 101.135 77.4154Z" fill="black"/>
<path d="M102.1 82.4325C109.244 82.8883 116.084 87.2946 119.444 93.6178C115.368 87.8206 109.063 83.7503 102.1 82.4325Z" fill="black"/>
<path d="M104.896 79.8991C111.798 79.2621 120.485 79.6946 124.581 86.1843C119.76 80.2965 111.885 80.1796 104.896 79.8991Z" fill="black"/>
<path d="M33.8569 72.5445C43.0728 72.2377 52.3881 73.9412 60.8969 77.4943C52.1163 74.7418 43.0436 73.0763 33.8569 72.5445Z" fill="black"/>
<path d="M32.5011 84.1593C41.8631 80.2351 52.3355 78.8355 62.3929 80.2351C52.2799 79.6887 42.1319 81.0387 32.5011 84.1593Z" fill="black"/>
<path d="M84.2083 88.7615C82.2302 91.7857 79.2702 94.2635 75.7989 95.8034C75.27 96.0401 74.6418 96.3674 74.6476 96.905C74.6535 97.5566 75.5534 97.8313 76.2635 97.8956C81.9175 98.3923 87.7527 96.8787 92.2759 93.7434C88.7199 93.6967 85.4151 91.0727 84.2083 88.7585V88.7615Z" fill="#6E3544"/>
<path d="M33.0271 93.2525C41.7989 87.8118 52.204 84.9366 62.5244 85.1061C52.2566 85.7898 42.1904 88.5657 33.0271 93.2525Z" fill="black"/>
<path d="M79.5215 94.2606C79.8633 96.8758 79.9598 99.5202 79.8078 102.153C82.0928 102.433 84.4538 102.054 86.5342 101.069C87.0455 100.826 87.5452 100.543 87.9309 100.131C88.7812 99.2134 88.8981 97.8546 88.9682 96.6069C89.0266 95.5726 89.0822 94.4973 88.7023 93.533C88.2845 92.4636 87.3962 91.6659 86.616 90.8214C85.8359 89.977 85.1112 88.9485 85.155 87.803C84.0944 90.4971 82.2418 92.8785 79.5186 94.2635L79.5215 94.2606Z" fill="#F5F5F5"/>
<path d="M62.6384 87.9871C51.5349 92.5396 41.9187 100.321 35.1484 110.215C41.2028 99.827 51.2164 91.7389 62.6384 87.9871Z" fill="black"/>
<path d="M84.895 81.0591C86.467 85.8453 84.1382 91.3094 80.2257 94.4827C76.3132 97.656 71.1354 98.8686 66.1009 99.0965C60.704 99.3419 54.7432 98.2871 51.2748 94.1437" fill="#FCE6CB"/>
<path d="M84.895 81.0591C86.8936 86.7599 83.4603 93.1298 78.4696 96.0459C73.5402 99.0439 67.1469 99.8036 61.4841 99.1871C57.6564 98.7225 53.7175 97.2527 51.2719 94.1437C53.8753 97.0365 57.7469 98.3631 61.5367 98.7196C67.1849 99.1841 73.2217 98.4624 78.1803 95.5726C83.0775 92.7412 86.4992 86.7219 84.8921 81.0562L84.895 81.0591Z" fill="#A18F85"/>
<path d="M85.1843 86.7979C84.7957 89.1618 86.1631 91.5841 88.1618 92.9077C90.1604 94.2314 92.6675 94.5849 95.0547 94.4125C98.6341 94.1525 102.126 92.7587 104.899 90.4766" fill="#FCE6CB"/>
<path d="M85.1843 86.7979C84.9739 88.8871 86.0433 90.8886 87.6095 92.1918C90.9084 94.7778 95.5485 94.4505 99.3617 93.2876C101.343 92.6623 103.21 91.698 104.899 90.4766C103.353 91.8909 101.515 93.0187 99.5166 93.7375C96.5274 94.8128 93.1525 95.1752 90.0932 94.1554C87.0719 93.2028 84.4859 90.0646 85.1843 86.7979Z" fill="#A18F85"/>
<path d="M51.2719 61.5491C52.1546 61.5491 52.8702 60.8335 52.8702 59.9508C52.8702 59.068 52.1546 58.3524 51.2719 58.3524C50.3892 58.3524 49.6736 59.068 49.6736 59.9508C49.6736 60.8335 50.3892 61.5491 51.2719 61.5491Z" fill="#F2F2F2"/>
<path d="M95.7414 58.9515C96.6241 58.9515 97.3397 58.2359 97.3397 57.3531C97.3397 56.4704 96.6241 55.7548 95.7414 55.7548C94.8587 55.7548 94.1431 56.4704 94.1431 57.3531C94.1431 58.2359 94.8587 58.9515 95.7414 58.9515Z" fill="#F2F2F2"/>
<path d="M84.0681 90.2458C84.3866 92.9223 84.4801 95.6252 84.3516 98.3192C85.1113 95.3067 85.1697 91.5432 84.8804 88.4488C84.5502 88.8579 84.4041 89.8922 84.0681 90.2458Z" fill="#D9D9D9"/>
</svg>
