<svg width="1678" height="316" viewBox="0 0 1678 316" fill="none" xmlns="http://www.w3.org/2000/svg">
<path d="M115.87 39.7701C112.99 32.3101 105.67 27.6201 98.53 24.0101C92.24 20.8201 85.41 17.9901 78.37 18.4801C70.62 19.0101 63.61 23.5601 58.36 29.2901C48.94 39.5701 44.34 54.44 47.56 68.01C50.78 81.58 62.26 93.1401 76.04 95.2701C79.51 84.0401 83.46 72.8301 89.7 62.8601C95.94 52.89 104.68 44.1601 115.86 39.7701H115.87Z" fill="#6B3519"/>
<path d="M288.91 31.22C272.98 15.26 248.77 11.38 226.25 10.35C201.3 9.21004 175.98 10.6 152.04 17.72C128.1 24.85 105.52 38.04 89.95 57.56C74.99 76.32 67.27 99.64 57.41 121.52C47.55 143.4 34.14 165.34 12.69 176.1C18.01 176.78 23.32 177.45 28.64 178.13C16.81 184.67 6.79 194.47 0 206.16C7.51 201.95 15.02 197.74 22.52 193.53C11.47 209.53 8.92999 231.07 15.96 249.21C13.7 241.06 18.39 231.59 26.24 228.44C20.81 240.15 23.68 255.17 33.04 264.05C31.69 259.53 32.32 254.46 34.73 250.41C43.25 267.3 59.21 279.54 76.57 287.05C93.93 294.56 112.8 297.82 131.51 300.65C166.44 305.92 201.8 309.89 237.04 307.44C272.28 304.99 307.61 295.82 337.21 276.55C365.9 257.87 399.03 233 394.26 199.1C392.44 186.16 388.75 178.33 383.04 166.57C379.56 159.4 358.39 144.95 354.91 137.78C348.17 123.89 347.69 105.84 340.6 92.13C332.46 76.39 323.77 60.74 312.09 47.41C300.41 34.08 285.44 23.08 288.89 31.19L288.91 31.22Z" fill="#663519"/>
<path d="M273.88 23.46C275.52 15.05 284.01 8.78 292.58 9C301.15 9.22 309.03 15.46 311.91 23.52C314.79 31.59 312.87 41 307.64 47.79C299.75 34.96 285.86 28.57 273.89 23.46H273.88Z" fill="#6B3519"/>
<path d="M253.49 171.7C241.38 158.85 234.73 142.03 227.13 126.14C219.53 110.25 210.01 94.17 194.65 85.41C173.59 73.4 144.99 78.9 127.58 95.72C110.18 112.54 103.6 138.62 105.36 164.4C79.56 166.17 54.69 178.79 38.12 198.53C46.41 195.05 55.33 193.06 64.32 192.67C51.59 199.81 42.46 212.97 40.27 227.33C42.8 223.12 47.57 220.33 52.5 220.17C52.03 231.43 51.56 242.7 51.08 253.96C53.39 249.34 57.26 245.51 61.93 243.24C64.23 258.82 68.09 274.18 73.9 286.85C98.36 302.06 172.84 315.23 225.28 308.28C206.26 289.26 197.58 260.59 202.89 234.3C208.2 208.01 227.34 184.89 253.49 171.7Z" fill="#A1582E"/>
<path d="M365.34 255.72C375.07 245.96 384.48 235.54 390.34 223.08C396.2 210.62 396.28 189.85 388.02 173.16C381.97 160.93 369.26 153.61 363.12 146.99C357.68 141.13 353.52 131.72 349.42 118.08C346.18 107.32 345.48 105.67 341.95 95C338.42 84.33 324.34 60.56 315.8 55.01C306.38 48.89 293.58 53.31 288.19 63.18C284.44 70.05 285.64 78.45 286.95 86.16C291.55 113.33 296.15 140.49 300.75 167.66C319.72 175.17 338.35 185.41 350.78 201.59C363.21 217.77 368.15 240.94 365.34 255.73V255.72Z" fill="#A0572D"/>
<path d="M170.37 175.26C181.581 175.26 190.67 165.468 190.67 153.39C190.67 141.312 181.581 131.52 170.37 131.52C159.159 131.52 150.07 141.312 150.07 153.39C150.07 165.468 159.159 175.26 170.37 175.26Z" fill="black"/>
<path d="M325.43 162.31C334.979 162.31 342.72 153.92 342.72 143.57C342.72 133.22 334.979 124.83 325.43 124.83C315.881 124.83 308.14 133.22 308.14 143.57C308.14 153.92 315.881 162.31 325.43 162.31Z" fill="black"/>
<path d="M358.13 262.27C371.39 253.09 377.13 235.21 373.92 219.4C370.71 203.59 359.62 190.09 345.91 181.6C332.2 173.11 316.07 169.21 300 167.78C271.64 165.26 242.32 170.3 217.46 184.18C192.6 198.06 172.53 221.08 164.23 248.31C160.47 260.67 159.25 274.56 165.01 286.13C171.06 298.27 183.97 305.85 197.24 308.62C210.51 311.39 224.27 309.98 237.71 308.18C283.44 302.08 326.11 284.41 358.11 262.27H358.13Z" fill="#FCE6CB"/>
<path d="M170.41 30.96C193.24 31.89 215.64 41.23 232.37 56.79C230.97 47.13 225.36 38.15 217.28 32.66C222.17 33.22 226.86 35.41 230.42 38.8C229.72 35.74 228.28 32.86 226.24 30.48C234.05 31.27 241.47 35.38 246.29 41.59C244.72 37.11 242.26 32.95 239.09 29.41C245.5 31.28 251.21 35.46 254.94 41C256.06 36.26 254.87 31.03 251.8 27.25C259.2 29.08 265.97 33.34 270.8 39.23C269.94 36.75 269.07 34.27 268.21 31.79C273.87 34.14 279.11 37.5 283.6 41.68C276.86 28.47 263.64 19.7 249.93 14.06C236.21 8.42 221.57 5.33 207.73 0C211.32 3.58 213.96 8.1 215.33 12.98C204.32 5.47 190.85 1.65 177.54 2.25C184.41 5.27 190.27 10.51 194.05 16.99C185.38 10.65 174.05 8.07 163.49 10.04C169.46 10.66 175.06 14.14 178.27 19.21C173.81 18.49 169.08 19.63 165.43 22.3C169.92 23.5 174.18 25.54 177.92 28.29C174.56 27.67 170.95 28.62 170.4 30.98L170.41 30.96Z" fill="#6A361B"/>
<path d="M296.81 211.42C302.64 207.2 308.64 202.77 312.16 196.5C315.68 190.22 315.98 181.53 310.9 176.44C306.62 172.16 299.99 171.56 293.94 171.21C282.41 170.54 270.46 169.93 259.7 174.12C254.41 176.18 249.24 179.77 247.47 185.17C245.44 191.34 248.43 198.16 252.78 202.98C263.33 214.68 284.19 220.58 296.81 211.43V211.42Z" fill="#2C201D"/>
<path opacity="0.2" d="M291.08 237.17C286.43 257.16 266.04 270.41 245.67 272.98C225.3 275.55 204.9 269.61 185.4 263.19C178.62 260.96 170.24 258.98 165.11 263.93C159.65 269.2 161.99 282.01 166.22 288.31C176.5 303.61 187.11 307.96 205.45 309.82C223.79 311.68 250.02 308.3 267.69 303.04C295.28 294.82 315.8 288.47 340.8 274.21C346.12 271.18 357.59 262.91 361.67 258.34C365.76 253.78 374.4 244.74 373.56 238.67C363.07 248.84 342.11 257.02 327.56 255.62C313.02 254.22 299.25 246.17 291.07 237.17H291.08Z" fill="#A18F85"/>
<path opacity="0.69" d="M100.66 53.8401C99.5699 46.9601 94.97 40.6601 88.62 37.7801C82.27 34.9001 74.3599 35.6501 68.8299 39.8901C63.2999 44.1301 60.52 51.7601 62.28 58.5001C63.5 63.1701 66.6599 67.1401 70.4099 70.1801C74.1599 73.2201 78.4899 75.4301 82.7899 77.6201C81.5799 74.9301 81.02 71.9501 81.19 69.0001C82.64 68.3601 84.48 68.7101 85.59 69.8401C85.01 67.5601 84.4299 65.2801 83.8499 63.0101L87.74 63.4801C85.8099 60.5801 84.75 57.1101 84.71 53.6301C90.08 51.5301 96.5899 52.7201 100.64 53.8401H100.66Z" fill="#A0572D"/>
<path opacity="0.69" d="M300.33 42.58C300.72 37.07 301.08 31.36 299.15 26.19C298.48 24.39 297.45 22.6 295.78 21.65C293.49 20.35 290.49 20.98 288.33 22.5C286.17 24.02 284.68 26.28 283.23 28.49C289.59 32.53 295.36 37.49 300.33 42.59V42.58Z" fill="#A0572D"/>
<path d="M337.48 192.86C360.08 172.4 389.86 159.71 420.28 157.6C390.34 162.61 361.84 174.74 337.48 192.86Z" fill="black"/>
<path d="M346.12 203.34C374.92 191.39 407.35 187.83 438.06 193.27C407.08 190.74 375.82 194.16 346.12 203.34Z" fill="black"/>
<path d="M349.42 220.51C373.87 222.07 397.28 237.15 408.78 258.79C394.83 238.95 373.25 225.02 349.42 220.51Z" fill="black"/>
<path d="M358.99 211.84C382.61 209.66 412.34 211.14 426.36 233.35C409.86 213.2 382.91 212.8 358.99 211.84Z" fill="black"/>
<path d="M115.87 186.67C147.41 185.62 179.29 191.45 208.41 203.61C178.36 194.19 147.31 188.49 115.87 186.67Z" fill="black"/>
<path d="M111.23 226.42C143.27 212.99 179.11 208.2 213.53 212.99C178.92 211.12 144.19 215.74 111.23 226.42Z" fill="black"/>
<path d="M288.19 242.17C281.42 252.52 271.29 261 259.41 266.27C257.6 267.08 255.45 268.2 255.47 270.04C255.49 272.27 258.57 273.21 261 273.43C280.35 275.13 300.32 269.95 315.8 259.22C303.63 259.06 292.32 250.08 288.19 242.16V242.17Z" fill="#6E3544"/>
<path d="M113.03 257.54C143.05 238.92 178.66 229.08 213.98 229.66C178.84 232 144.39 241.5 113.03 257.54Z" fill="black"/>
<path d="M272.15 260.99C273.32 269.94 273.65 278.99 273.13 288C280.95 288.96 289.03 287.66 296.15 284.29C297.9 283.46 299.61 282.49 300.93 281.08C303.84 277.94 304.24 273.29 304.48 269.02C304.68 265.48 304.87 261.8 303.57 258.5C302.14 254.84 299.1 252.11 296.43 249.22C293.76 246.33 291.28 242.81 291.43 238.89C287.8 248.11 281.46 256.26 272.14 261L272.15 260.99Z" fill="#F5F5F5"/>
<path d="M214.37 239.52C176.37 255.1 143.46 281.73 120.29 315.59C141.01 280.04 175.28 252.36 214.37 239.52Z" fill="black"/>
<path d="M290.54 215.81C295.92 232.19 287.95 250.89 274.56 261.75C261.17 272.61 243.45 276.76 226.22 277.54C207.75 278.38 187.35 274.77 175.48 260.59" fill="#FCE6CB"/>
<path d="M290.54 215.81C297.38 235.32 285.63 257.12 268.55 267.1C251.68 277.36 229.8 279.96 210.42 277.85C197.32 276.26 183.84 271.23 175.47 260.59C184.38 270.49 197.63 275.03 210.6 276.25C229.93 277.84 250.59 275.37 267.56 265.48C284.32 255.79 296.03 235.19 290.53 215.8L290.54 215.81Z" fill="#A18F85"/>
<path d="M291.53 235.45C290.2 243.54 294.88 251.83 301.72 256.36C308.56 260.89 317.14 262.1 325.31 261.51C337.56 260.62 349.51 255.85 359 248.04" fill="#FCE6CB"/>
<path d="M291.53 235.45C290.81 242.6 294.47 249.45 299.83 253.91C311.12 262.76 327 261.64 340.05 257.66C346.83 255.52 353.22 252.22 359 248.04C353.71 252.88 347.42 256.74 340.58 259.2C330.35 262.88 318.8 264.12 308.33 260.63C297.99 257.37 289.14 246.63 291.53 235.45Z" fill="#A18F85"/>
<path d="M175.47 149.04C178.491 149.04 180.94 146.591 180.94 143.57C180.94 140.549 178.491 138.1 175.47 138.1C172.449 138.1 170 140.549 170 143.57C170 146.591 172.449 149.04 175.47 149.04Z" fill="#F2F2F2"/>
<path d="M327.66 140.15C330.681 140.15 333.13 137.701 333.13 134.68C333.13 131.659 330.681 129.21 327.66 129.21C324.639 129.21 322.19 131.659 322.19 134.68C322.19 137.701 324.639 140.15 327.66 140.15Z" fill="#F2F2F2"/>
<path d="M287.71 247.25C288.8 256.41 289.12 265.66 288.68 274.88C291.28 264.57 291.48 251.69 290.49 241.1C289.36 242.5 288.86 246.04 287.71 247.25Z" fill="#D9D9D9"/>
<path d="M939.322 89.3196L986.491 239.02C987.451 242.23 986.931 245.2 984.931 247.92C981.281 255.31 959.482 250.87 953.282 252.02C936.652 252.97 935.221 231.86 932.581 220.25C933.901 216.16 890.321 219.21 889.021 218.33C882.531 219.64 885.422 243.83 876.392 248.29C870.152 254.63 850.881 251.2 843.061 252.02C839.691 252.02 837.002 250.66 835.002 247.93C832.992 245.21 832.472 242.24 833.442 239.03C837.232 234.65 879.692 76.4296 887.222 79.9496C893.692 73.6896 913.551 77.2396 921.521 76.3396C929.431 76.2296 936.931 81.7996 939.331 89.3396L939.322 89.3196ZM896.972 182.21H922.002C922.482 182.21 922.922 182.01 923.322 181.61C924.982 180.61 909.372 118.77 909.722 117.47C908.682 115.99 895.751 180.28 895.281 180.29C894.901 181.25 896.082 182.25 896.972 182.21Z" fill="url(#paint0_linear_3_178)"/>
<path d="M939.322 86.5095L986.491 236.21C987.451 239.42 986.931 242.39 984.931 245.11C981.281 252.5 959.482 248.06 953.282 249.21C936.652 250.16 935.221 229.05 932.581 217.44C933.901 213.35 890.321 216.4 889.021 215.52C882.531 216.83 885.422 241.02 876.392 245.48C870.152 251.82 850.881 248.39 843.061 249.21C839.691 249.21 837.002 247.85 835.002 245.12C832.992 242.4 832.472 239.43 833.442 236.22C837.232 231.84 879.692 73.6195 887.222 77.1395C893.692 70.8795 913.551 74.4295 921.521 73.5295C929.431 73.4195 936.931 78.9895 939.331 86.5295L939.322 86.5095ZM896.972 179.41H922.002C922.482 179.41 922.922 179.21 923.322 178.81C924.982 177.81 909.372 115.97 909.722 114.67C908.682 113.19 895.751 177.48 895.281 177.49C894.901 178.45 896.082 179.45 896.972 179.41Z" fill="url(#paint1_linear_3_178)"/>
<path d="M939.322 83.7096L986.491 233.41C987.451 236.62 986.931 239.59 984.931 242.31C981.281 249.7 959.482 245.26 953.282 246.41C936.652 247.36 935.221 226.25 932.581 214.64C933.901 210.55 890.321 213.6 889.021 212.72C882.531 214.03 885.422 238.22 876.392 242.68C870.152 249.02 850.881 245.59 843.061 246.41C839.691 246.41 837.002 245.05 835.002 242.32C832.992 239.6 832.472 236.63 833.442 233.42C837.232 229.04 879.692 70.8196 887.222 74.3396C893.692 68.0796 913.551 71.6296 921.521 70.7296C929.431 70.6196 936.931 76.1896 939.331 83.7296L939.322 83.7096ZM896.972 176.6H922.002C922.482 176.6 922.922 176.4 923.322 176C924.982 175 909.372 113.16 909.722 111.86C908.682 110.38 895.751 174.67 895.281 174.68C894.901 175.64 896.082 176.64 896.972 176.6Z" fill="url(#paint2_linear_3_178)"/>
<path d="M939.322 80.8995L986.491 230.6C987.451 233.81 986.931 236.78 984.931 239.5C981.281 246.89 959.482 242.45 953.282 243.6C936.652 244.55 935.221 223.44 932.581 211.83C933.901 207.74 890.321 210.79 889.021 209.91C882.531 211.22 885.422 235.41 876.392 239.87C870.152 246.21 850.881 242.78 843.061 243.6C839.691 243.6 837.002 242.24 835.002 239.51C832.992 236.79 832.472 233.82 833.442 230.61C837.232 226.23 879.692 68.0095 887.222 71.5295C893.692 65.2695 913.551 68.8195 921.521 67.9195C929.431 67.8095 936.931 73.3795 939.331 80.9195L939.322 80.8995ZM896.972 173.8H922.002C922.482 173.8 922.922 173.6 923.322 173.2C924.982 172.2 909.372 110.36 909.722 109.06C908.682 107.58 895.751 171.87 895.281 171.88C894.901 172.84 896.082 173.84 896.972 173.8Z" fill="url(#paint3_linear_3_178)"/>
<path d="M939.322 78.0996L986.491 227.8C987.451 231.01 986.931 233.98 984.931 236.7C981.281 244.09 959.482 239.65 953.282 240.8C936.652 241.75 935.221 220.64 932.581 209.03C933.901 204.94 890.321 207.99 889.021 207.11C882.531 208.42 885.422 232.61 876.392 237.07C870.152 243.41 850.881 239.98 843.061 240.8C839.691 240.8 837.002 239.44 835.002 236.71C832.992 233.99 832.472 231.02 833.442 227.81C837.232 223.43 879.692 65.2096 887.222 68.7296C893.692 62.4696 913.551 66.0196 921.521 65.1196C929.431 65.0096 936.931 70.5796 939.331 78.1196L939.322 78.0996ZM896.972 171H922.002C922.482 171 922.922 170.8 923.322 170.4C924.982 169.4 909.372 107.56 909.722 106.26C908.682 104.78 895.751 169.07 895.281 169.08C894.901 170.04 896.082 171.04 896.972 171Z" fill="url(#paint4_linear_3_178)"/>
<path d="M939.322 75.2896L986.491 224.99C987.451 228.2 986.931 231.17 984.931 233.89C981.281 241.28 959.482 236.84 953.282 237.99C936.652 238.94 935.221 217.83 932.581 206.22C933.901 202.13 890.321 205.18 889.021 204.3C882.531 205.61 885.422 229.8 876.392 234.26C870.152 240.6 850.881 237.17 843.061 237.99C839.691 237.99 837.002 236.63 835.002 233.9C832.992 231.18 832.472 228.21 833.442 225C837.232 220.62 879.692 62.3996 887.222 65.9196C893.692 59.6596 913.551 63.2096 921.521 62.3096C929.431 62.1996 936.931 67.7696 939.331 75.3096L939.322 75.2896ZM896.972 168.19H922.002C922.482 168.19 922.922 167.99 923.322 167.59C924.982 166.59 909.372 104.75 909.722 103.45C908.682 101.97 895.751 166.26 895.281 166.27C894.901 167.23 896.082 168.23 896.972 168.19Z" fill="url(#paint5_linear_3_178)"/>
<path d="M939.322 76.6996L986.491 226.4C987.451 229.61 986.931 232.58 984.931 235.3C981.281 242.69 959.482 238.25 953.282 239.4C936.652 240.35 935.221 219.24 932.581 207.63C933.901 203.54 890.321 206.59 889.021 205.71C882.531 207.02 885.422 231.21 876.392 235.67C870.152 242.01 850.881 238.58 843.061 239.4C839.691 239.4 837.002 238.04 835.002 235.31C832.992 232.59 832.472 229.62 833.442 226.41C837.232 222.03 879.692 63.8096 887.222 67.3296C893.692 61.0696 913.551 64.6196 921.521 63.7196C929.431 63.6096 936.931 69.1796 939.331 76.7196L939.322 76.6996ZM896.972 169.59H922.002C922.482 169.59 922.922 169.39 923.322 168.99C924.982 167.99 909.372 106.15 909.722 104.85C908.682 103.37 895.751 167.66 895.281 167.67C894.901 168.63 896.082 169.63 896.972 169.59Z" fill="#AB5D53"/>
<path d="M939.322 75.2896L986.491 224.99C987.451 228.2 986.931 231.17 984.931 233.89C981.281 241.28 959.482 236.84 953.282 237.99C936.652 238.94 935.221 217.83 932.581 206.22C933.901 202.13 890.321 205.18 889.021 204.3C882.531 205.61 885.422 229.8 876.392 234.26C870.152 240.6 850.881 237.17 843.061 237.99C839.691 237.99 837.002 236.63 835.002 233.9C832.992 231.18 832.472 228.21 833.442 225C837.232 220.62 879.692 62.3996 887.222 65.9196C893.692 59.6596 913.551 63.2096 921.521 62.3096C929.431 62.1996 936.931 67.7696 939.331 75.3096L939.322 75.2896ZM896.972 168.19H922.002C922.482 168.19 922.922 167.99 923.322 167.59C924.982 166.59 909.372 104.75 909.722 103.45C908.682 101.97 895.751 166.26 895.281 166.27C894.901 167.23 896.082 168.23 896.972 168.19Z" fill="url(#paint6_linear_3_178)"/>
<path d="M1352.73 170.89C1352.92 176.95 1348.92 184.56 1342.69 184.61H1234.24C1218.82 183.25 1225.64 155.16 1224.2 145.38C1224.01 139.32 1228 131.71 1234.24 131.66H1342.69C1358.11 133.01 1351.29 161.11 1352.73 170.89Z" fill="url(#paint7_linear_3_178)"/>
<path d="M1352.73 168.49C1352.92 174.55 1348.92 182.16 1342.69 182.21H1234.24C1218.82 180.85 1225.64 152.76 1224.2 142.98C1224.01 136.92 1228 129.31 1234.24 129.26H1342.69C1358.11 130.61 1351.29 158.71 1352.73 168.49Z" fill="url(#paint8_linear_3_178)"/>
<path d="M1352.73 166.089C1352.92 172.149 1348.92 179.759 1342.69 179.809H1234.24C1218.82 178.449 1225.64 150.359 1224.2 140.579C1224.01 134.519 1228 126.909 1234.24 126.859H1342.69C1358.11 128.209 1351.29 156.309 1352.73 166.089Z" fill="url(#paint9_linear_3_178)"/>
<path d="M1352.73 163.69C1352.92 169.75 1348.92 177.36 1342.69 177.41H1234.24C1218.82 176.05 1225.64 147.96 1224.2 138.18C1224.01 132.12 1228 124.51 1234.24 124.46H1342.69C1358.11 125.81 1351.29 153.91 1352.73 163.69Z" fill="url(#paint10_linear_3_178)"/>
<path d="M1352.73 161.29C1352.92 167.35 1348.92 174.96 1342.69 175.01H1234.24C1218.82 173.65 1225.64 145.56 1224.2 135.78C1224.01 129.72 1228 122.11 1234.24 122.06H1342.69C1358.11 123.41 1351.29 151.51 1352.73 161.29Z" fill="url(#paint11_linear_3_178)"/>
<path d="M1352.73 158.89C1352.92 164.95 1348.92 172.56 1342.69 172.61H1234.24C1218.82 171.25 1225.64 143.16 1224.2 133.38C1224.01 127.32 1228 119.71 1234.24 119.66H1342.69C1358.11 121.01 1351.29 149.11 1352.73 158.89Z" fill="url(#paint12_linear_3_178)"/>
<path d="M1352.73 160.089C1352.92 166.149 1348.92 173.759 1342.69 173.809H1234.24C1218.82 172.449 1225.64 144.359 1224.2 134.579C1224.01 128.519 1228 120.909 1234.24 120.859H1342.69C1358.11 122.209 1351.29 150.309 1352.73 160.089Z" fill="#AB5D53"/>
<path d="M1352.73 158.89C1352.92 164.95 1348.92 172.56 1342.69 172.61H1234.24C1218.82 171.25 1225.64 143.16 1224.2 133.38C1224.01 127.32 1228 119.71 1234.24 119.66H1342.69C1358.11 121.01 1351.29 149.11 1352.73 158.89Z" fill="url(#paint13_linear_3_178)"/>
<path d="M1496.31 75.1196C1503.48 74.9096 1510.24 81.6696 1510.03 88.8396V183.42C1510.03 208.61 1504.77 226.54 1494.27 237.21C1483.76 247.88 1466.55 253.22 1442.65 253.22C1422.33 251.22 1391.76 256.06 1389.7 231.08C1389.44 222.29 1387.81 204.45 1402.22 208.7C1419.18 214.07 1442.32 220.41 1454.32 206.54C1466.53 192.37 1458.53 107.72 1460.7 88.8496C1460.37 70.9596 1485.15 75.5996 1496.32 75.1296L1496.31 75.1196Z" fill="url(#paint14_linear_3_178)"/>
<path d="M1496.31 72.3095C1503.48 72.0995 1510.24 78.8595 1510.03 86.0295V180.61C1510.03 205.8 1504.77 223.73 1494.27 234.4C1483.76 245.07 1466.55 250.41 1442.65 250.41C1422.33 248.41 1391.76 253.25 1389.7 228.27C1389.44 219.48 1387.81 201.64 1402.22 205.89C1419.18 211.26 1442.32 217.6 1454.32 203.73C1466.53 189.56 1458.53 104.91 1460.7 86.0395C1460.37 68.1495 1485.15 72.7895 1496.32 72.3195L1496.31 72.3095Z" fill="url(#paint15_linear_3_178)"/>
<path d="M1496.31 69.5096C1503.48 69.2996 1510.24 76.0596 1510.03 83.2296V177.81C1510.03 203 1504.77 220.93 1494.27 231.6C1483.76 242.27 1466.55 247.61 1442.65 247.61C1422.33 245.61 1391.76 250.45 1389.7 225.47C1389.44 216.68 1387.81 198.84 1402.22 203.09C1419.18 208.46 1442.32 214.8 1454.32 200.93C1466.53 186.76 1458.53 102.11 1460.7 83.2396C1460.37 65.3496 1485.15 69.9896 1496.32 69.5196L1496.31 69.5096Z" fill="url(#paint16_linear_3_178)"/>
<path d="M1496.31 66.6995C1503.48 66.4895 1510.24 73.2495 1510.03 80.4195V175C1510.03 200.19 1504.77 218.12 1494.27 228.79C1483.76 239.46 1466.55 244.8 1442.65 244.8C1422.33 242.8 1391.76 247.64 1389.7 222.66C1389.44 213.87 1387.81 196.03 1402.22 200.28C1419.18 205.65 1442.32 211.99 1454.32 198.12C1466.53 183.95 1458.53 99.2995 1460.7 80.4295C1460.37 62.5395 1485.15 67.1795 1496.32 66.7095L1496.31 66.6995Z" fill="url(#paint17_linear_3_178)"/>
<path d="M1496.31 63.8996C1503.48 63.6896 1510.24 70.4496 1510.03 77.6196V172.2C1510.03 197.39 1504.77 215.32 1494.27 225.99C1483.76 236.66 1466.55 242 1442.65 242C1422.33 240 1391.76 244.84 1389.7 219.86C1389.44 211.07 1387.81 193.23 1402.22 197.48C1419.18 202.85 1442.32 209.19 1454.32 195.32C1466.53 181.15 1458.53 96.4996 1460.7 77.6296C1460.37 59.7396 1485.15 64.3796 1496.32 63.9096L1496.31 63.8996Z" fill="url(#paint18_linear_3_178)"/>
<path d="M1496.31 61.0895C1503.48 60.8795 1510.24 67.6395 1510.03 74.8095V169.39C1510.03 194.58 1504.77 212.51 1494.27 223.18C1483.76 233.85 1466.55 239.19 1442.65 239.19C1422.33 237.19 1391.76 242.03 1389.7 217.05C1389.44 208.26 1387.81 190.42 1402.22 194.67C1419.18 200.04 1442.32 206.38 1454.32 192.51C1466.53 178.34 1458.53 93.6895 1460.7 74.8195C1460.37 56.9295 1485.15 61.5695 1496.32 61.0995L1496.31 61.0895Z" fill="url(#paint19_linear_3_178)"/>
<path d="M1496.31 62.4896C1503.48 62.2796 1510.24 69.0396 1510.03 76.2096V170.79C1510.03 195.98 1504.77 213.91 1494.27 224.58C1483.76 235.25 1466.55 240.59 1442.65 240.59C1422.33 238.59 1391.76 243.43 1389.7 218.45C1389.44 209.66 1387.81 191.82 1402.22 196.07C1419.18 201.44 1442.32 207.78 1454.32 193.91C1466.53 179.74 1458.53 95.0896 1460.7 76.2196C1460.37 58.3296 1485.15 62.9696 1496.32 62.4996L1496.31 62.4896Z" fill="#AB5D53"/>
<path d="M1496.31 61.0895C1503.48 60.8795 1510.24 67.6395 1510.03 74.8095V169.39C1510.03 194.58 1504.77 212.51 1494.27 223.18C1483.76 233.85 1466.55 239.19 1442.65 239.19C1422.33 237.19 1391.76 242.03 1389.7 217.05C1389.44 208.26 1387.81 190.42 1402.22 194.67C1419.18 200.04 1442.32 206.38 1454.32 192.51C1466.53 178.34 1458.53 93.6895 1460.7 74.8195C1460.37 56.9295 1485.15 61.5695 1496.32 61.0995L1496.31 61.0895Z" fill="url(#paint20_linear_3_178)"/>
<path d="M1142.91 72.3096C1150.09 72.0996 1156.84 78.8496 1156.63 86.0296V234.28C1156.87 250.86 1135.51 248.04 1124.62 248C1115.48 248 1108.89 243.91 1104.88 235.73C1104.39 235.67 1063.48 150.65 1062.76 151.97C1061.18 158.33 1066.84 241.69 1058.67 243.91C1053.48 250.63 1037.8 247.2 1030.75 248C1023.57 248.21 1016.82 241.46 1017.03 234.28V86.0296C1016.82 78.8496 1023.57 72.0996 1030.75 72.3096C1043.73 72.5796 1062.93 69.2796 1068.77 84.5796L1110.41 168.33C1110.37 168.65 1110.92 168.66 1110.89 168.33C1112.47 161.96 1106.81 78.6196 1114.98 76.3896C1120.17 69.6696 1135.85 73.0996 1142.9 72.2996L1142.91 72.3096Z" fill="url(#paint21_linear_3_178)"/>
<path d="M1142.91 69.5095C1150.09 69.2995 1156.84 76.0495 1156.63 83.2295V231.48C1156.87 248.06 1135.51 245.24 1124.62 245.2C1115.48 245.2 1108.89 241.11 1104.88 232.93C1104.39 232.87 1063.48 147.85 1062.76 149.17C1061.18 155.53 1066.84 238.89 1058.67 241.11C1053.48 247.83 1037.8 244.4 1030.75 245.2C1023.57 245.41 1016.82 238.66 1017.03 231.48V83.2295C1016.82 76.0495 1023.57 69.2995 1030.75 69.5095C1043.73 69.7795 1062.93 66.4795 1068.77 81.7795L1110.41 165.53C1110.37 165.85 1110.92 165.86 1110.89 165.53C1112.47 159.16 1106.81 75.8195 1114.98 73.5895C1120.17 66.8695 1135.85 70.2995 1142.9 69.4995L1142.91 69.5095Z" fill="url(#paint22_linear_3_178)"/>
<path d="M1142.91 66.6996C1150.09 66.4896 1156.84 73.2396 1156.63 80.4196V228.67C1156.87 245.25 1135.51 242.43 1124.62 242.39C1115.48 242.39 1108.89 238.3 1104.88 230.12C1104.39 230.06 1063.48 145.04 1062.76 146.36C1061.18 152.72 1066.84 236.08 1058.67 238.3C1053.48 245.02 1037.8 241.59 1030.75 242.39C1023.57 242.6 1016.82 235.85 1017.03 228.67V80.4196C1016.82 73.2396 1023.57 66.4896 1030.75 66.6996C1043.73 66.9696 1062.93 63.6696 1068.77 78.9696L1110.41 162.72C1110.37 163.04 1110.92 163.05 1110.89 162.72C1112.47 156.35 1106.81 73.0096 1114.98 70.7796C1120.17 64.0596 1135.85 67.4896 1142.9 66.6896L1142.91 66.6996Z" fill="url(#paint23_linear_3_178)"/>
<path d="M1142.91 63.8995C1150.09 63.6895 1156.84 70.4395 1156.63 77.6195V225.87C1156.87 242.45 1135.51 239.63 1124.62 239.59C1115.48 239.59 1108.89 235.5 1104.88 227.32C1104.39 227.26 1063.48 142.24 1062.76 143.56C1061.18 149.92 1066.84 233.28 1058.67 235.5C1053.48 242.22 1037.8 238.79 1030.75 239.59C1023.57 239.8 1016.82 233.05 1017.03 225.87V77.6195C1016.82 70.4395 1023.57 63.6895 1030.75 63.8995C1043.73 64.1695 1062.93 60.8695 1068.77 76.1695L1110.41 159.92C1110.37 160.24 1110.92 160.25 1110.89 159.92C1112.47 153.55 1106.81 70.2095 1114.98 67.9795C1120.17 61.2595 1135.85 64.6895 1142.9 63.8895L1142.91 63.8995Z" fill="url(#paint24_linear_3_178)"/>
<path d="M1142.91 61.0896C1150.09 60.8796 1156.84 67.6296 1156.63 74.8096V223.06C1156.87 239.64 1135.51 236.82 1124.62 236.78C1115.48 236.78 1108.89 232.69 1104.88 224.51C1104.39 224.45 1063.48 139.43 1062.76 140.75C1061.18 147.11 1066.84 230.47 1058.67 232.69C1053.48 239.41 1037.8 235.98 1030.75 236.78C1023.57 236.99 1016.82 230.24 1017.03 223.06V74.8096C1016.82 67.6296 1023.57 60.8796 1030.75 61.0896C1043.73 61.3596 1062.93 58.0596 1068.77 73.3596L1110.41 157.11C1110.37 157.43 1110.92 157.44 1110.89 157.11C1112.47 150.74 1106.81 67.3996 1114.98 65.1696C1120.17 58.4496 1135.85 61.8796 1142.9 61.0796L1142.91 61.0896Z" fill="url(#paint25_linear_3_178)"/>
<path d="M1142.91 58.2895C1150.09 58.0795 1156.84 64.8295 1156.63 72.0095V220.26C1156.87 236.84 1135.51 234.02 1124.62 233.98C1115.48 233.98 1108.89 229.89 1104.88 221.71C1104.39 221.65 1063.48 136.63 1062.76 137.95C1061.18 144.31 1066.84 227.67 1058.67 229.89C1053.48 236.61 1037.8 233.18 1030.75 233.98C1023.57 234.19 1016.82 227.44 1017.03 220.26V72.0095C1016.82 64.8295 1023.57 58.0795 1030.75 58.2895C1043.73 58.5595 1062.93 55.2595 1068.77 70.5595L1110.41 154.31C1110.37 154.63 1110.92 154.64 1110.89 154.31C1112.47 147.94 1106.81 64.5995 1114.98 62.3695C1120.17 55.6495 1135.85 59.0795 1142.9 58.2795L1142.91 58.2895Z" fill="url(#paint26_linear_3_178)"/>
<path d="M1142.91 59.6896C1150.09 59.4796 1156.84 66.2296 1156.63 73.4096V221.66C1156.87 238.24 1135.51 235.42 1124.62 235.38C1115.48 235.38 1108.89 231.29 1104.88 223.11C1104.39 223.05 1063.48 138.03 1062.76 139.35C1061.18 145.71 1066.84 229.07 1058.67 231.29C1053.48 238.01 1037.8 234.58 1030.75 235.38C1023.57 235.59 1016.82 228.84 1017.03 221.66V73.4096C1016.82 66.2296 1023.57 59.4796 1030.75 59.6896C1043.73 59.9596 1062.93 56.6596 1068.77 71.9596L1110.41 155.71C1110.37 156.03 1110.92 156.04 1110.89 155.71C1112.47 149.34 1106.81 65.9996 1114.98 63.7696C1120.17 57.0496 1135.85 60.4796 1142.9 59.6796L1142.91 59.6896Z" fill="#AB5D53"/>
<path d="M1142.91 58.2895C1150.09 58.0795 1156.84 64.8295 1156.63 72.0095V220.26C1156.87 236.84 1135.51 234.02 1124.62 233.98C1115.48 233.98 1108.89 229.89 1104.88 221.71C1104.39 221.65 1063.48 136.63 1062.76 137.95C1061.18 144.31 1066.84 227.67 1058.67 229.89C1053.48 236.61 1037.8 233.18 1030.75 233.98C1023.57 234.19 1016.82 227.44 1017.03 220.26V72.0095C1016.82 64.8295 1023.57 58.0795 1030.75 58.2895C1043.73 58.5595 1062.93 55.2595 1068.77 70.5595L1110.41 154.31C1110.37 154.63 1110.92 154.64 1110.89 154.31C1112.47 147.94 1106.81 64.5995 1114.98 62.3695C1120.17 55.6495 1135.85 59.0795 1142.9 58.2795L1142.91 58.2895Z" fill="url(#paint27_linear_3_178)"/>
<path d="M605.991 139.7C628.451 146.28 644.101 154.14 652.921 163.29C684.411 203.15 660.151 257.63 597.571 252.82C568.011 251.08 541.271 249.83 545.831 213.59C545.571 207.54 552.501 203.94 557.621 206.61C574.171 214.59 614.781 224.85 616.831 201.08C619.501 180.89 572.261 181.6 555.091 159.56C535.991 140.74 535.691 102.08 557.981 85.7895C571.601 69.8595 662.831 61.7395 661.351 95.6495C661.831 104.73 662.441 120.01 648.591 116.11C630.541 111.21 592.081 99.3195 589.871 122.85C589.871 130.88 595.241 136.49 606.001 139.7H605.991Z" fill="url(#paint28_linear_3_178)"/>
<path d="M605.991 136.89C628.451 143.47 644.101 151.33 652.921 160.48C684.411 200.34 660.151 254.82 597.571 250.01C568.011 248.27 541.271 247.02 545.831 210.78C545.571 204.73 552.501 201.13 557.621 203.8C574.171 211.78 614.781 222.04 616.831 198.27C619.501 178.08 572.261 178.79 555.091 156.75C535.991 137.93 535.691 99.2695 557.981 82.9895C571.601 67.0495 662.831 58.9295 661.351 92.8495C661.831 101.93 662.441 117.21 648.591 113.31C630.541 108.41 592.081 96.5195 589.871 120.05C589.871 128.08 595.241 133.69 606.001 136.9L605.991 136.89Z" fill="url(#paint29_linear_3_178)"/>
<path d="M605.991 134.09C628.451 140.67 644.101 148.53 652.921 157.68C684.411 197.54 660.151 252.02 597.571 247.21C568.011 245.47 541.271 244.22 545.831 207.98C545.571 201.93 552.501 198.33 557.621 201C574.171 208.98 614.781 219.24 616.831 195.47C619.501 175.28 572.261 175.99 555.091 153.95C535.991 135.13 535.691 96.4695 557.981 80.1795C571.601 64.2495 662.831 56.1295 661.351 90.0395C661.831 99.1195 662.441 114.4 648.591 110.5C630.541 105.6 592.081 93.7095 589.871 117.24C589.871 125.27 595.241 130.88 606.001 134.09H605.991Z" fill="url(#paint30_linear_3_178)"/>
<path d="M605.991 131.28C628.451 137.86 644.101 145.72 652.921 154.87C684.411 194.73 660.151 249.21 597.571 244.4C568.011 242.66 541.271 241.41 545.831 205.17C545.571 199.12 552.501 195.52 557.621 198.19C574.171 206.17 614.781 216.43 616.831 192.66C619.501 172.47 572.261 173.18 555.091 151.14C535.991 132.32 535.691 93.6595 557.981 77.3795C571.601 61.4395 662.831 53.3195 661.351 87.2395C661.831 96.3195 662.441 111.6 648.591 107.7C630.541 102.8 592.081 90.9095 589.871 114.44C589.871 122.47 595.241 128.08 606.001 131.29L605.991 131.28Z" fill="url(#paint31_linear_3_178)"/>
<path d="M605.991 128.48C628.451 135.06 644.101 142.92 652.921 152.07C684.411 191.93 660.151 246.41 597.571 241.6C568.011 239.86 541.271 238.61 545.831 202.37C545.571 196.32 552.501 192.72 557.621 195.39C574.171 203.37 614.781 213.63 616.831 189.86C619.501 169.67 572.261 170.38 555.091 148.34C535.991 129.52 535.691 90.8596 557.981 74.5696C571.601 58.6396 662.831 50.5196 661.351 84.4296C661.831 93.5096 662.441 108.79 648.591 104.89C630.541 99.9895 592.081 88.0996 589.871 111.63C589.871 119.66 595.241 125.27 606.001 128.48H605.991Z" fill="url(#paint32_linear_3_178)"/>
<path d="M605.991 125.67C628.451 132.25 644.101 140.11 652.921 149.26C684.411 189.12 660.151 243.6 597.571 238.79C568.011 237.05 541.271 235.8 545.831 199.56C545.571 193.51 552.501 189.91 557.621 192.58C574.171 200.56 614.781 210.82 616.831 187.05C619.501 166.86 572.261 167.57 555.091 145.53C535.991 126.71 535.691 88.0495 557.981 71.7695C571.601 55.8295 662.831 47.7195 661.351 81.6295C661.831 90.7095 662.441 105.99 648.591 102.09C630.541 97.1895 592.081 85.2995 589.871 108.83C589.871 116.86 595.241 122.47 606.001 125.68L605.991 125.67Z" fill="url(#paint33_linear_3_178)"/>
<path d="M605.991 127.08C628.451 133.66 644.101 141.52 652.921 150.67C684.411 190.53 660.151 245.01 597.571 240.2C568.011 238.46 541.271 237.21 545.831 200.97C545.571 194.92 552.501 191.32 557.621 193.99C574.171 201.97 614.781 212.23 616.831 188.46C619.501 168.27 572.261 168.98 555.091 146.94C535.991 128.12 535.691 89.4495 557.981 73.1695C571.601 57.2395 662.831 49.1195 661.351 83.0295C661.831 92.1095 662.441 107.39 648.591 103.49C630.541 98.5895 592.081 86.6995 589.871 110.23C589.871 118.26 595.241 123.87 606.001 127.08H605.991Z" fill="#AB5D53"/>
<path d="M605.991 125.67C628.451 132.25 644.101 140.11 652.921 149.26C684.411 189.12 660.151 243.6 597.571 238.79C568.011 237.05 541.271 235.8 545.831 199.56C545.571 193.51 552.501 189.91 557.621 192.58C574.171 200.56 614.781 210.82 616.831 187.05C619.501 166.86 572.261 167.57 555.091 145.53C535.991 126.71 535.691 88.0495 557.981 71.7695C571.601 55.8295 662.831 47.7195 661.351 81.6295C661.831 90.7095 662.441 105.99 648.591 102.09C630.541 97.1895 592.081 85.2995 589.871 108.83C589.871 116.86 595.241 122.47 606.001 125.68L605.991 125.67Z" fill="url(#paint34_linear_3_178)"/>
<path d="M1617.15 145.7C1639.61 152.28 1655.26 160.14 1664.08 169.29C1695.57 209.15 1671.31 263.63 1608.73 258.82C1579.17 257.08 1552.43 255.83 1556.99 219.59C1556.73 213.54 1563.66 209.94 1568.78 212.61C1585.33 220.59 1625.94 230.85 1627.99 207.08C1630.66 186.89 1583.42 187.6 1566.25 165.56C1547.15 146.75 1546.86 108.09 1569.14 91.7995C1582.76 75.8695 1673.99 67.7495 1672.51 101.66C1672.99 110.74 1673.6 126.02 1659.75 122.12C1641.7 117.22 1603.24 105.33 1601.03 128.86C1601.03 136.89 1606.4 142.5 1617.16 145.71L1617.15 145.7Z" fill="url(#paint35_linear_3_178)"/>
<path d="M1617.15 142.899C1639.61 149.479 1655.26 157.339 1664.08 166.489C1695.57 206.349 1671.31 260.829 1608.73 256.019C1579.17 254.279 1552.43 253.029 1556.99 216.789C1556.73 210.739 1563.66 207.139 1568.78 209.809C1585.33 217.789 1625.94 228.049 1627.99 204.279C1630.66 184.089 1583.42 184.799 1566.25 162.759C1547.15 143.949 1546.86 105.289 1569.14 88.9995C1582.76 73.0695 1673.99 64.9495 1672.51 98.8595C1672.99 107.939 1673.6 123.219 1659.75 119.319C1641.7 114.419 1603.24 102.529 1601.03 126.059C1601.03 134.089 1606.4 139.699 1617.16 142.909L1617.15 142.899Z" fill="url(#paint36_linear_3_178)"/>
<path d="M1617.15 140.09C1639.61 146.67 1655.26 154.53 1664.08 163.68C1695.57 203.54 1671.31 258.02 1608.73 253.21C1579.17 251.47 1552.43 250.22 1556.99 213.98C1556.73 207.93 1563.66 204.33 1568.78 207C1585.33 214.98 1625.94 225.24 1627.99 201.47C1630.66 181.28 1583.42 181.99 1566.25 159.95C1547.15 141.14 1546.86 102.48 1569.14 86.1895C1582.76 70.2595 1673.99 62.1395 1672.51 96.0495C1672.99 105.13 1673.6 120.41 1659.75 116.51C1641.7 111.61 1603.24 99.7195 1601.03 123.25C1601.03 131.28 1606.4 136.89 1617.16 140.1L1617.15 140.09Z" fill="url(#paint37_linear_3_178)"/>
<path d="M1617.15 137.289C1639.61 143.869 1655.26 151.729 1664.08 160.879C1695.57 200.739 1671.31 255.22 1608.73 250.41C1579.17 248.67 1552.43 247.419 1556.99 211.179C1556.73 205.129 1563.66 201.529 1568.78 204.199C1585.33 212.179 1625.94 222.439 1627.99 198.669C1630.66 178.479 1583.42 179.189 1566.25 157.149C1547.15 138.339 1546.86 99.6795 1569.14 83.3895C1582.76 67.4595 1673.99 59.3395 1672.51 93.2495C1672.99 102.329 1673.6 117.609 1659.75 113.709C1641.7 108.809 1603.24 96.9195 1601.03 120.449C1601.03 128.479 1606.4 134.089 1617.16 137.299L1617.15 137.289Z" fill="url(#paint38_linear_3_178)"/>
<path d="M1617.15 134.48C1639.61 141.06 1655.26 148.92 1664.08 158.07C1695.57 197.93 1671.31 252.41 1608.73 247.6C1579.17 245.86 1552.43 244.61 1556.99 208.37C1556.73 202.32 1563.66 198.72 1568.78 201.39C1585.33 209.37 1625.94 219.63 1627.99 195.86C1630.66 175.67 1583.42 176.38 1566.25 154.34C1547.15 135.53 1546.86 96.8696 1569.14 80.5796C1582.76 64.6496 1673.99 56.5296 1672.51 90.4396C1672.99 99.5196 1673.6 114.8 1659.75 110.9C1641.7 106 1603.24 94.1096 1601.03 117.64C1601.03 125.67 1606.4 131.28 1617.16 134.49L1617.15 134.48Z" fill="url(#paint39_linear_3_178)"/>
<path d="M1617.15 131.68C1639.61 138.26 1655.26 146.12 1664.08 155.27C1695.57 195.13 1671.31 249.61 1608.73 244.8C1579.17 243.06 1552.43 241.81 1556.99 205.57C1556.73 199.52 1563.66 195.92 1568.78 198.59C1585.33 206.57 1625.94 216.83 1627.99 193.06C1630.66 172.87 1583.42 173.58 1566.25 151.54C1547.15 132.73 1546.86 94.0695 1569.14 77.7795C1582.76 61.8495 1673.99 53.7295 1672.51 87.6395C1672.99 96.7195 1673.6 112 1659.75 108.1C1641.7 103.2 1603.24 91.3095 1601.03 114.84C1601.03 122.87 1606.4 128.48 1617.16 131.69L1617.15 131.68Z" fill="url(#paint40_linear_3_178)"/>
<path d="M1617.15 133.08C1639.61 139.66 1655.26 147.52 1664.08 156.67C1695.57 196.53 1671.31 251.01 1608.73 246.2C1579.17 244.46 1552.43 243.21 1556.99 206.97C1556.73 200.92 1563.66 197.32 1568.78 199.99C1585.33 207.97 1625.94 218.23 1627.99 194.46C1630.66 174.27 1583.42 174.98 1566.25 152.94C1547.15 134.13 1546.86 95.4695 1569.14 79.1795C1582.76 63.2495 1673.99 55.1295 1672.51 89.0395C1672.99 98.1195 1673.6 113.4 1659.75 109.5C1641.7 104.6 1603.24 92.7095 1601.03 116.24C1601.03 124.27 1606.4 129.88 1617.16 133.09L1617.15 133.08Z" fill="#AB5D53"/>
<path d="M1617.15 131.68C1639.61 138.26 1655.26 146.12 1664.08 155.27C1695.57 195.13 1671.31 249.61 1608.73 244.8C1579.17 243.06 1552.43 241.81 1556.99 205.57C1556.73 199.52 1563.66 195.92 1568.78 198.59C1585.33 206.57 1625.94 216.83 1627.99 193.06C1630.66 172.87 1583.42 173.58 1566.25 151.54C1547.15 132.73 1546.86 94.0695 1569.14 77.7795C1582.76 61.8495 1673.99 53.7295 1672.51 87.6395C1672.99 96.7195 1673.6 112 1659.75 108.1C1641.7 103.2 1603.24 91.3095 1601.03 114.84C1601.03 122.87 1606.4 128.48 1617.16 131.69L1617.15 131.68Z" fill="url(#paint41_linear_3_178)"/>
<path d="M815.571 74.7195C822.741 74.5095 829.491 81.2595 829.291 88.4395C828.791 94.9895 831.141 105.509 825.201 110.339C820.031 117.609 793.611 113.379 786.211 114.429C778.681 117.879 790.221 244.82 780.071 246.32C774.991 253.48 755.541 249.37 748.421 250.41C741.201 250.62 734.751 243.839 734.951 236.689V116.589C734.951 115.149 734.231 114.429 732.781 114.429C721.211 113.049 689.181 120.759 689.701 100.709C688.871 90.5795 689.461 74.4595 703.421 74.7195H815.571Z" fill="url(#paint42_linear_3_178)"/>
<path d="M815.571 71.9194C822.741 71.7094 829.491 78.4594 829.291 85.6394C828.791 92.1894 831.141 102.709 825.201 107.539C820.031 114.809 793.611 110.579 786.211 111.629C778.681 115.079 790.221 242.019 780.071 243.519C774.991 250.679 755.541 246.569 748.421 247.609C741.201 247.819 734.751 241.039 734.951 233.889V113.789C734.951 112.349 734.231 111.629 732.781 111.629C721.211 110.249 689.181 117.959 689.701 97.9094C688.871 87.7794 689.461 71.6594 703.421 71.9194H815.571Z" fill="url(#paint43_linear_3_178)"/>
<path d="M815.571 69.1095C822.741 68.8995 829.491 75.6495 829.291 82.8295C828.791 89.3795 831.141 99.8995 825.201 104.73C820.031 112 793.611 107.77 786.211 108.82C778.681 112.27 790.221 239.21 780.071 240.71C774.991 247.87 755.541 243.76 748.421 244.8C741.201 245.01 734.751 238.23 734.951 231.08V110.98C734.951 109.54 734.231 108.82 732.781 108.82C721.211 107.44 689.181 115.15 689.701 95.0995C688.871 84.9695 689.461 68.8495 703.421 69.1095H815.571Z" fill="url(#paint44_linear_3_178)"/>
<path d="M815.571 66.3095C822.741 66.0995 829.491 72.8495 829.291 80.0295C828.791 86.5795 831.141 97.0995 825.201 101.929C820.031 109.199 793.611 104.969 786.211 106.019C778.681 109.469 790.221 236.409 780.071 237.909C774.991 245.069 755.541 240.959 748.421 241.999C741.201 242.209 734.751 235.429 734.951 228.279V108.179C734.951 106.739 734.231 106.019 732.781 106.019C721.211 104.639 689.181 112.349 689.701 92.2995C688.871 82.1695 689.461 66.0495 703.421 66.3095H815.571Z" fill="url(#paint45_linear_3_178)"/>
<path d="M815.571 63.4995C822.741 63.2895 829.491 70.0395 829.291 77.2195C828.791 83.7695 831.141 94.2895 825.201 99.1195C820.031 106.39 793.611 102.16 786.211 103.21C778.681 106.66 790.221 233.6 780.071 235.1C774.991 242.26 755.541 238.15 748.421 239.19C741.201 239.4 734.751 232.62 734.951 225.47V105.37C734.951 103.93 734.231 103.21 732.781 103.21C721.211 101.83 689.181 109.54 689.701 89.4895C688.871 79.3595 689.461 63.2395 703.421 63.4995H815.571Z" fill="url(#paint46_linear_3_178)"/>
<path d="M815.571 60.6995C822.741 60.4895 829.491 67.2395 829.291 74.4195C828.791 80.9695 831.141 91.4895 825.201 96.3195C820.031 103.589 793.611 99.3595 786.211 100.409C778.681 103.859 790.221 230.799 780.071 232.299C774.991 239.459 755.541 235.349 748.421 236.389C741.201 236.599 734.751 229.819 734.951 222.669V102.569C734.951 101.129 734.231 100.409 732.781 100.409C721.211 99.0295 689.181 106.739 689.701 86.6895C688.871 76.5595 689.461 60.4395 703.421 60.6995H815.571Z" fill="url(#paint47_linear_3_178)"/>
<path d="M815.571 62.0995C822.741 61.8895 829.491 68.6395 829.291 75.8195C828.791 82.3695 831.141 92.8895 825.201 97.7195C820.031 104.99 793.611 100.76 786.211 101.81C778.681 105.26 790.221 232.199 780.071 233.699C774.991 240.859 755.541 236.749 748.421 237.789C741.201 237.999 734.751 231.22 734.951 224.07V103.97C734.951 102.53 734.231 101.81 732.781 101.81C721.211 100.43 689.181 108.14 689.701 88.0895C688.871 77.9595 689.461 61.8395 703.421 62.0995H815.571Z" fill="#AB5D53"/>
<path d="M815.571 60.6995C822.741 60.4895 829.491 67.2395 829.291 74.4195C828.791 80.9695 831.141 91.4895 825.201 96.3195C820.031 103.589 793.611 99.3595 786.211 100.409C778.681 103.859 790.221 230.799 780.071 232.299C774.991 239.459 755.541 235.349 748.421 236.389C741.201 236.599 734.751 229.819 734.951 222.669V102.569C734.951 101.129 734.231 100.409 732.781 100.409C721.211 99.0295 689.181 106.739 689.701 86.6895C688.871 76.5595 689.461 60.4395 703.421 60.6995H815.571Z" fill="url(#paint48_linear_3_178)"/>
<defs>
<linearGradient id="paint0_linear_3_178" x1="909.971" y1="252.31" x2="909.971" y2="76.1196" gradientUnits="userSpaceOnUse">
<stop stop-color="#63240B"/>
<stop offset="1" stop-color="#63240B"/>
</linearGradient>
<linearGradient id="paint1_linear_3_178" x1="541.002" y1="249.5" x2="542.002" y2="73.3095" gradientUnits="userSpaceOnUse">
<stop stop-color="#63240B"/>
<stop offset="1" stop-color="#63240B"/>
</linearGradient>
<linearGradient id="paint2_linear_3_178" x1="541.002" y1="246.7" x2="542.002" y2="70.5096" gradientUnits="userSpaceOnUse">
<stop stop-color="#63240B"/>
<stop offset="1" stop-color="#63240B"/>
</linearGradient>
<linearGradient id="paint3_linear_3_178" x1="541.002" y1="243.89" x2="542.002" y2="67.6995" gradientUnits="userSpaceOnUse">
<stop stop-color="#63240B"/>
<stop offset="1" stop-color="#63240B"/>
</linearGradient>
<linearGradient id="paint4_linear_3_178" x1="541.002" y1="241.09" x2="542.002" y2="64.8996" gradientUnits="userSpaceOnUse">
<stop stop-color="#63240B"/>
<stop offset="1" stop-color="#63240B"/>
</linearGradient>
<linearGradient id="paint5_linear_3_178" x1="541.002" y1="238.28" x2="542.002" y2="62.0896" gradientUnits="userSpaceOnUse">
<stop stop-color="#63240B"/>
<stop offset="1" stop-color="#63240B"/>
</linearGradient>
<linearGradient id="paint6_linear_3_178" x1="909.971" y1="238.28" x2="909.971" y2="62.0896" gradientUnits="userSpaceOnUse">
<stop stop-color="#80350E"/>
<stop offset="1" stop-color="#DE7724"/>
</linearGradient>
<linearGradient id="paint7_linear_3_178" x1="1288.47" y1="184.6" x2="1288.47" y2="131.65" gradientUnits="userSpaceOnUse">
<stop stop-color="#63240B"/>
<stop offset="1" stop-color="#63240B"/>
</linearGradient>
<linearGradient id="paint8_linear_3_178" x1="1288.47" y1="182.21" x2="1288.47" y2="129.26" gradientUnits="userSpaceOnUse">
<stop stop-color="#63240B"/>
<stop offset="1" stop-color="#63240B"/>
</linearGradient>
<linearGradient id="paint9_linear_3_178" x1="1288.47" y1="179.809" x2="1288.47" y2="126.859" gradientUnits="userSpaceOnUse">
<stop stop-color="#63240B"/>
<stop offset="1" stop-color="#63240B"/>
</linearGradient>
<linearGradient id="paint10_linear_3_178" x1="1288.47" y1="177.41" x2="1288.47" y2="124.46" gradientUnits="userSpaceOnUse">
<stop stop-color="#63240B"/>
<stop offset="1" stop-color="#63240B"/>
</linearGradient>
<linearGradient id="paint11_linear_3_178" x1="1288.47" y1="175.01" x2="1288.47" y2="122.06" gradientUnits="userSpaceOnUse">
<stop stop-color="#63240B"/>
<stop offset="1" stop-color="#63240B"/>
</linearGradient>
<linearGradient id="paint12_linear_3_178" x1="1288.47" y1="172.61" x2="1288.47" y2="119.66" gradientUnits="userSpaceOnUse">
<stop stop-color="#63240B"/>
<stop offset="1" stop-color="#63240B"/>
</linearGradient>
<linearGradient id="paint13_linear_3_178" x1="1288.47" y1="172.61" x2="1288.47" y2="119.66" gradientUnits="userSpaceOnUse">
<stop stop-color="#80350E"/>
<stop offset="1" stop-color="#DE7724"/>
</linearGradient>
<linearGradient id="paint14_linear_3_178" x1="1449.76" y1="253.22" x2="1449.76" y2="74.8996" gradientUnits="userSpaceOnUse">
<stop stop-color="#63240B"/>
<stop offset="1" stop-color="#63240B"/>
</linearGradient>
<linearGradient id="paint15_linear_3_178" x1="1449.76" y1="250.41" x2="1449.76" y2="72.0895" gradientUnits="userSpaceOnUse">
<stop stop-color="#63240B"/>
<stop offset="1" stop-color="#63240B"/>
</linearGradient>
<linearGradient id="paint16_linear_3_178" x1="1449.76" y1="247.61" x2="1449.76" y2="69.2896" gradientUnits="userSpaceOnUse">
<stop stop-color="#63240B"/>
<stop offset="1" stop-color="#63240B"/>
</linearGradient>
<linearGradient id="paint17_linear_3_178" x1="1449.76" y1="244.8" x2="1449.76" y2="66.4795" gradientUnits="userSpaceOnUse">
<stop stop-color="#63240B"/>
<stop offset="1" stop-color="#63240B"/>
</linearGradient>
<linearGradient id="paint18_linear_3_178" x1="1449.76" y1="242" x2="1449.76" y2="63.6796" gradientUnits="userSpaceOnUse">
<stop stop-color="#63240B"/>
<stop offset="1" stop-color="#63240B"/>
</linearGradient>
<linearGradient id="paint19_linear_3_178" x1="1449.76" y1="239.19" x2="1449.76" y2="60.8695" gradientUnits="userSpaceOnUse">
<stop stop-color="#63240B"/>
<stop offset="1" stop-color="#63240B"/>
</linearGradient>
<linearGradient id="paint20_linear_3_178" x1="1449.76" y1="239.19" x2="1449.76" y2="60.8695" gradientUnits="userSpaceOnUse">
<stop stop-color="#80350E"/>
<stop offset="1" stop-color="#DE7724"/>
</linearGradient>
<linearGradient id="paint21_linear_3_178" x1="1086.83" y1="248.21" x2="1086.83" y2="72.1295" gradientUnits="userSpaceOnUse">
<stop stop-color="#63240B"/>
<stop offset="1" stop-color="#63240B"/>
</linearGradient>
<linearGradient id="paint22_linear_3_178" x1="1086.83" y1="245.409" x2="1086.83" y2="69.3295" gradientUnits="userSpaceOnUse">
<stop stop-color="#63240B"/>
<stop offset="1" stop-color="#63240B"/>
</linearGradient>
<linearGradient id="paint23_linear_3_178" x1="1086.83" y1="242.6" x2="1086.83" y2="66.5196" gradientUnits="userSpaceOnUse">
<stop stop-color="#63240B"/>
<stop offset="1" stop-color="#63240B"/>
</linearGradient>
<linearGradient id="paint24_linear_3_178" x1="1086.83" y1="239.799" x2="1086.83" y2="63.7195" gradientUnits="userSpaceOnUse">
<stop stop-color="#63240B"/>
<stop offset="1" stop-color="#63240B"/>
</linearGradient>
<linearGradient id="paint25_linear_3_178" x1="1086.83" y1="236.99" x2="1086.83" y2="60.9096" gradientUnits="userSpaceOnUse">
<stop stop-color="#63240B"/>
<stop offset="1" stop-color="#63240B"/>
</linearGradient>
<linearGradient id="paint26_linear_3_178" x1="1086.83" y1="234.19" x2="1086.83" y2="58.1095" gradientUnits="userSpaceOnUse">
<stop stop-color="#63240B"/>
<stop offset="1" stop-color="#63240B"/>
</linearGradient>
<linearGradient id="paint27_linear_3_178" x1="1086.83" y1="234.19" x2="1086.83" y2="58.1095" gradientUnits="userSpaceOnUse">
<stop stop-color="#80350E"/>
<stop offset="1" stop-color="#DE7724"/>
</linearGradient>
<linearGradient id="paint28_linear_3_178" x1="603.841" y1="253.11" x2="603.841" y2="72.0195" gradientUnits="userSpaceOnUse">
<stop stop-color="#63240B"/>
<stop offset="1" stop-color="#63240B"/>
</linearGradient>
<linearGradient id="paint29_linear_3_178" x1="603.841" y1="250.31" x2="603.841" y2="69.2195" gradientUnits="userSpaceOnUse">
<stop stop-color="#63240B"/>
<stop offset="1" stop-color="#63240B"/>
</linearGradient>
<linearGradient id="paint30_linear_3_178" x1="603.841" y1="247.5" x2="603.841" y2="66.4095" gradientUnits="userSpaceOnUse">
<stop stop-color="#63240B"/>
<stop offset="1" stop-color="#63240B"/>
</linearGradient>
<linearGradient id="paint31_linear_3_178" x1="603.841" y1="244.7" x2="603.841" y2="63.6095" gradientUnits="userSpaceOnUse">
<stop stop-color="#63240B"/>
<stop offset="1" stop-color="#63240B"/>
</linearGradient>
<linearGradient id="paint32_linear_3_178" x1="603.841" y1="241.89" x2="603.841" y2="60.7995" gradientUnits="userSpaceOnUse">
<stop stop-color="#63240B"/>
<stop offset="1" stop-color="#63240B"/>
</linearGradient>
<linearGradient id="paint33_linear_3_178" x1="603.841" y1="239.09" x2="603.841" y2="57.9995" gradientUnits="userSpaceOnUse">
<stop stop-color="#63240B"/>
<stop offset="1" stop-color="#63240B"/>
</linearGradient>
<linearGradient id="paint34_linear_3_178" x1="603.841" y1="239.09" x2="603.841" y2="57.9995" gradientUnits="userSpaceOnUse">
<stop stop-color="#80350E"/>
<stop offset="1" stop-color="#DE7724"/>
</linearGradient>
<linearGradient id="paint35_linear_3_178" x1="1615" y1="259.12" x2="1615" y2="78.0295" gradientUnits="userSpaceOnUse">
<stop stop-color="#63240B"/>
<stop offset="1" stop-color="#63240B"/>
</linearGradient>
<linearGradient id="paint36_linear_3_178" x1="1615" y1="256.309" x2="1615" y2="75.2195" gradientUnits="userSpaceOnUse">
<stop stop-color="#63240B"/>
<stop offset="1" stop-color="#63240B"/>
</linearGradient>
<linearGradient id="paint37_linear_3_178" x1="1615" y1="253.51" x2="1615" y2="72.4195" gradientUnits="userSpaceOnUse">
<stop stop-color="#63240B"/>
<stop offset="1" stop-color="#63240B"/>
</linearGradient>
<linearGradient id="paint38_linear_3_178" x1="1615" y1="250.699" x2="1615" y2="69.6095" gradientUnits="userSpaceOnUse">
<stop stop-color="#63240B"/>
<stop offset="1" stop-color="#63240B"/>
</linearGradient>
<linearGradient id="paint39_linear_3_178" x1="1615" y1="247.9" x2="1615" y2="66.8096" gradientUnits="userSpaceOnUse">
<stop stop-color="#63240B"/>
<stop offset="1" stop-color="#63240B"/>
</linearGradient>
<linearGradient id="paint40_linear_3_178" x1="1615" y1="245.09" x2="1615" y2="63.9995" gradientUnits="userSpaceOnUse">
<stop stop-color="#63240B"/>
<stop offset="1" stop-color="#63240B"/>
</linearGradient>
<linearGradient id="paint41_linear_3_178" x1="1615" y1="245.09" x2="1615" y2="63.9995" gradientUnits="userSpaceOnUse">
<stop stop-color="#80350E"/>
<stop offset="1" stop-color="#DE7724"/>
</linearGradient>
<linearGradient id="paint42_linear_3_178" x1="759.401" y1="250.66" x2="759.401" y2="74.7195" gradientUnits="userSpaceOnUse">
<stop stop-color="#63240B"/>
<stop offset="1" stop-color="#63240B"/>
</linearGradient>
<linearGradient id="paint43_linear_3_178" x1="759.401" y1="247.849" x2="759.401" y2="71.9095" gradientUnits="userSpaceOnUse">
<stop stop-color="#63240B"/>
<stop offset="1" stop-color="#63240B"/>
</linearGradient>
<linearGradient id="paint44_linear_3_178" x1="759.401" y1="245.05" x2="759.401" y2="69.1095" gradientUnits="userSpaceOnUse">
<stop stop-color="#63240B"/>
<stop offset="1" stop-color="#63240B"/>
</linearGradient>
<linearGradient id="paint45_linear_3_178" x1="759.401" y1="242.239" x2="759.401" y2="66.2995" gradientUnits="userSpaceOnUse">
<stop stop-color="#63240B"/>
<stop offset="1" stop-color="#63240B"/>
</linearGradient>
<linearGradient id="paint46_linear_3_178" x1="759.401" y1="239.44" x2="759.401" y2="63.4995" gradientUnits="userSpaceOnUse">
<stop stop-color="#63240B"/>
<stop offset="1" stop-color="#63240B"/>
</linearGradient>
<linearGradient id="paint47_linear_3_178" x1="759.401" y1="236.629" x2="759.401" y2="60.6895" gradientUnits="userSpaceOnUse">
<stop stop-color="#63240B"/>
<stop offset="1" stop-color="#63240B"/>
</linearGradient>
<linearGradient id="paint48_linear_3_178" x1="759.401" y1="236.629" x2="759.401" y2="60.6895" gradientUnits="userSpaceOnUse">
<stop stop-color="#80350E"/>
<stop offset="1" stop-color="#DE7724"/>
</linearGradient>
</defs>
</svg>
