<svg width="750" height="672" fill="none" xmlns="http://www.w3.org/2000/svg"><path d="M269.83 453.66c-35.05-42.84-111.55-68.05-172.95-58.12-11.51 1.86-36.79 5.72-47.34 12.94-78.43 53.64-45.12 119.18-25.14 139.19 3.16 3.16 12.45 9.02 16.83 10.42 70.8 22.52 161.35-8.59 230.19 17.82 29.21 11.21 52.5 32.15 80.84 44.93 28.34 12.78 65.87 15.95 99.97-8.02-94.77-16.16-128.92-93.78-182.4-159.14v-.02z" fill="#3A2C21"/><path opacity=".31" d="M265.37 456.43c-35.43-37.66-93.23-64.85-149.83-61.4-12.91.79-47.4 4.64-59.21 13.15-13.4 9.66-37.77 32.57-44.29 47.91-10.03 23.59-9.18 30.86-8.09 45.57 28.86-29.06 115.77-50.1 150.66-48.08 34.89 2.02 65.28 16.73 92.88 34.1 27.6 17.36 61.91 37.61 91.4 52.1-34.12-21.99-49.82-58.15-73.52-83.35z" fill="#3B1407"/><path d="M80.87 557.31c21.47-47.23 31.22-97.7 27.85-144.2M153.3 553.87c28.97-45.95 31.95-93.9 21.22-138.15" stroke="#3B1407" stroke-width="2.47" stroke-miterlimit="10"/><path d="M226.75 549.37c15.26-37.35 17.84-72.68 10.69-106.01" stroke="#3B1407" stroke-width="2.08" stroke-miterlimit="10"/><path d="M54.16 485.4c97.98-4.21 191.09 18.01 268.04 63.97" stroke="#3B1407" stroke-width="2.47" stroke-miterlimit="10"/><path d="M473.2 547.27c3.83 31.37-6.76 64.21-28.2 87.44 28.22-7.57-9.22 23.63-45.16 27.7-11.1 1.26-24.4 2.62-31.42-6.07-3.93-4.86-4.53-11.52-6.65-17.4-3.21-8.87-9.91-15.93-15.8-23.29-36.92-46.16-44.73-110.37-34.06-168.5 10.68-58.13 38.4-113.48 66.21-165.12 83.89 29.08 174.74 35.45 257.91.95 25.65 23.6 54.77 39.59 70.39 70.75 4.96 9.9 5.93 29.28 4.27 40.23-1.9 12.55-10.95 23.1-21.69 29.85-10.74 6.75-21.06 12.37-34.5 13.41.24 10.98-1.6 19.89-1.57 32.02 23.81 6.39 42.77 28.02 45.99 52.46 2.73 20.76-5.18 41.79-17.34 58.83s-28.34 30.74-44.33 44.24l39.6 6.27c3.88.61 8.85 2.55 8.43 6.46-.28 2.61-2.98 4.17-5.39 5.22-31.38 13.64-66.9 12.73-101.1 11.58-8.13-.27-16.89-.77-23.23-5.85-6.35-5.09-7.94-16.58-.97-20.76-40.93 10.39-84.4 10.64-125.45.73" fill="#6A361B"/><path d="M549.57 628.91c-2.69 5.61-1.03 14.24 3.03 18.95 4.06 4.71 10.13 7.33 16.25 8.44 6.12 1.11 12.4.84 18.63.67 29.19-.76 58.45.84 87.38 4.79.05-.52-.17-2.95-.38-5.37 4.19-.24 8.33 2.53 9.88 6.4.27.68 1.16.93 1.68.41 1.82-1.84 2.18-5.14.48-7.17 2.85 2.21 7.73 3.54 8.55 6.64l-.11-7.67c1.88-1.47 4.31.86 5.68 2.82s4.41 3.82 5.75 1.84c.6-.89.36-2.07.06-3.1-3.82-12.7-15.44-21.86-27.97-26.2-12.54-4.34-26.06-4.62-39.32-4.87 11.14-11.4 20.75-22.64 29.63-34.44 10.1-13.42 19.35-27.76 24.47-43.75 5.13-15.99 5.83-33.88-.89-49.27s-21.65-27.63-39.43-28.39c1.46 34.71-5.63 70.24-23.48 100.04-17.85 29.8-46.83 51.51-79.88 59.22l-.01.01z" fill="#6A361B"/><path d="M549.35 629.52c-3.59 7.21 1.94 20.09 8.92 23.71 6.98 3.63 15.83 4.11 23.63 3.87 31.77-1 62.53.29 93.78 6.37 3.54-.53 1.87-2.36 1.62-3.81-.63-3.58 5.92.61 7.13 3.6.21.53.88.68 1.32.32 1.38-1.15 2.5-2.39 2.65-3.37.09-.58.52-1.06 1.11-1.02 3.43.21 3.8 1.63 4.72 4.15.14.39.63.56.96.31 1.96-1.42 3.33-3.27 3.11-4.4-.16-.8-.03-1.05.74-.79 2.94 1.01 2.25 3.69 5.31 4.88 10.65-8.05-15.2-32.43-31.91-36.86-16.71-4.44-34.31-1.91-51.37.64 30.07-36.42 42.23-85.79 28.5-125.63-8.98 28.32-18.15 57.04-34.16 81.77-16.01 24.73-40.58 41.73-66.06 46.28v-.02z" fill="#3B1407"/><path d="M640.05 381.31c-6.98-16.5-17.02-32.09-31.2-43.03-14.19-10.94-32.89-16.78-50.41-13.05-15.24 3.25-28.38 13.37-37.83 25.76-9.46 12.39-15.59 26.96-20.8 41.65a415.68 415.68 0 00-23.27 116.99c-1.16 22.28-.54 44.74-4.32 66.73-3.78 21.99-12.53 43.99-29.25 58.76 36.93 7.07 75.62 4.78 111.46-6.6 17.41-5.53 34.42-13.34 47.99-25.58 16.75-15.1 27.19-35.94 35.06-57.07 19.63-52.71 24.35-113.07 2.57-164.58v.02z" fill="#FBE6C8"/><path opacity=".19" d="M635.43 371.43c13.17 28.57 15.85 37.77 18.21 66 .78 9.3-26.62-27.25-37.32-25.82-139.93 18.64-129.15 25.36-106.79 3.01 7.3-7.3 21.71-13.36 22.82-25.09 1.1-11.66-11.56-20.75-12.24-32.44-.95-16.46 22.26-28.19 38.34-31.86 38.25-8.74 67.35 25.29 76.99 46.2h-.01z" fill="#3B1407"/><path d="M350.95 615.73c13.61 8.3 11.65 30.26 23.98 40.37 6.7 5.5 16.02 6.13 24.67 6.52 24.32 1.1 47.06.29 71.38 1.39 1.75.08 5.18 2.05 6.72 1.22 1.54-.83 2.56-2.9 1.65-4.4 5.98 2.7 11.97 1.76 16.79 6.21 3.93-3.13 3.96-5.11.55-8.79 5.27 1.48 9.29 1.63 12.78 5.86 3.05-3.5 1-7.7-.53-12.08s-1.5-6.09-4.97-9.17c-18.72-16.63-48.39-19.44-67.19-6.91 25.75-17.95 42.02-48.77 42.3-80.16.28-31.38-15.42-62.5-40.84-80.91-15.96-11.56-38.43-17.91-55.18-7.52" fill="#6A361B"/><path opacity=".31" d="M424.62 483.79c-12.79-14.91-34.61-15.89-54.2-14.45 19.86-9.8 44.55-9.1 63.82 1.82 19.27 10.92 35.26 28.47 37.05 50.54M361.86 635.6c20.44 3.47 39.26 2.28 57.35-7.86 16.31-9.14 27.89-25.2 35.02-42.49 7.13-17.29 10.23-35.94 13.04-54.42 12.67 22.48 9.01 51.15-2.2 74.39-4.48 9.28-10.21 18.19-18.28 24.61-17.15 13.65-41.09 13.66-63 13.02-8.74-.25-15.07-.3-21.93-7.25z" fill="#3B1407"/><path d="M463.63 605.83c-18.64 22.16-43.15 42.1-67.96 57.03 25.94 1.77 52.21 1.25 78.15 3.02 2.03.14 3.73-.36 5.77-.24 3.12.18 1.52-3.23-.39-3.94 8.14 2.02 15.54 2.11 17.13 9.45 3.08-5.8 4.02-6.46 1.53-12.54 6.32 1.73 8.95 2.9 12.41 8.47 4.4-9.11.14-22.3-8.92-28.38-15.05-10.1-29.97-9.98-36.52-10.52-7.75-.63-18.17 3.38-17.25 2.28.84-1 11.5-10.7 16.05-24.64v.01z" fill="#3B1407"/><path d="M584.81 456.43c-2.04 38.32-11.71 76.22-28.28 110.83 16-12.85 24.73-33.06 27.64-53.37 2.91-20.31.57-40.97.64-57.46z" fill="#D9C9B4"/><path opacity=".31" d="M374.27 305.65c3.9 2.41 8.5 3.39 12.99 4.33 12.42 2.59 24.85 5.19 37.27 7.78 11.71 2.44 24.2 5.32 32.35 14.07 4.17 4.48 7.01 10.34 12.14 13.68 3.94 2.57 8.75 3.32 13.4 3.98 11.17 1.57 22.76 2.89 33.56-.38 13.74-4.16 24.5-15.24 38.12-19.76 14.83-4.92 31.49-1.33 45 6.52 13.51 7.84 24.33 19.55 34.19 31.66 5.19-9.21 14.26-16.14 24.51-18.73-5.55-20.38-11.1-40.76-16.64-61.15-.34-1.25-.74-2.59-1.8-3.34-1.54-1.1-5.16-.62-6.9.14-68.58 29.84-167.88 31.09-251.67-1.46-3-1.16-16.84 16.3-6.53 22.67l.01-.01z" fill="#3B1407"/><path d="M563.05 324.35c.12-.3.27-.58.42-.86-.18.26-.33.55-.42.86z" fill="url(#prefix__paint0_radial_2_5)"/><path d="M639.06 342.77c2.98-3.32-1.82-7.88-4.98-4.74 2.64-3.6-2.59-7.66-5.43-4.22 2.27-3.84-3.34-7.37-5.82-3.66 1.4-3.03-1.58-5.45-4.04-4.81.02.04.05.08.07.13 1.19 2.69 1.04 6.3-1.11 8.81-2.15 2.51-6.44 3.1-8.06.68-.16 2.47-2.13 4.95-4.56 5.75-2.43.79-5.1-.17-6.19-2.24-.04 2.87-4 4.81-6.61 3.91-2.61-.9-4.05-3.48-5.31-5.89-2.15 3.2-6.42 4.92-9.77 3.93-3.35-.99-5.44-4.58-4.79-8.22-3.42 2.02-7.98.91-9.49-2.31-.59-1.26-.66-2.74-.33-4.19-2.32-2.86-7.41-.17-5.76 3.63-2.38-3.77-8.08-.38-5.91 3.51-2.75-3.51-8.08.42-5.53 4.08-3.08-3.22-8 1.22-5.1 4.61-3.39-2.9-7.84 2.01-4.61 5.1-3.66-2.55-7.6 2.78-4.08 5.53-3.9-2.17-7.28 3.53-3.51 5.91-4.09-1.77-6.89 4.24-2.91 6.23-4.25-1.36-6.44 4.9-2.27 6.49-4.36-.93-5.92 5.52-1.61 6.68-4.43-.49-5.34 6.08-.94 6.81-4.46-.04-4.71 6.58-.26 6.87-4.44.4-4.03 7.02.43 6.86-4.38.84-3.31 7.38 1.11 6.78-4.27 1.27-2.56 7.68 1.78 6.64-4.13 1.69-1.78 7.89 2.43 6.43-3.94 2.09-.99 8.03 3.06 6.16-3.71 2.48-.18 8.09 3.66 5.82-3.44 2.83.62 8.07 4.22 5.43-3.15 3.16 1.42 7.96 4.74 4.98-2.81 3.46 2.21 7.78 5.21 4.48-2.46 3.72 2.97 7.52 5.63 3.94-2.07 3.95 3.71 7.19 6 3.36-1.67 4.14 4.41 6.79 6.3 2.75-1.25 4.28 5.06 6.31 6.54 2.11-.82 4.38 5.66 5.78 6.72 1.45-.38 4.44 6.21 5.19 6.83.77.07 4.46 6.7 4.54 6.87.09.51 4.43 7.11 3.85 6.85-.6.95 4.36 7.46 3.13 6.76-1.28 1.38 4.24 7.74 2.37 6.59-1.94 1.79 4.08 7.93 1.58 6.37-2.59 2.19 3.88 8.05.79 6.08-3.21 2.57 3.65 8.09-.02 5.73-3.8 2.92 3.37 8.05-.82 5.32-4.35 3.24 3.07 7.93-1.62 4.86-4.86 3.53 2.73 7.73-2.4 4.35-5.32 3.78 2.36 7.45-3.16 3.8-5.73 4 1.97 7.1-3.89 3.21-6.08 4.18 1.57 6.67-4.57 2.59-6.37 4.31 1.14 6.19-5.22 1.94-6.59 4.4.71 5.64-5.81 1.28-6.76 4.45.27 5.03-6.34.6-6.85 4.46-.18 4.37-6.81-.09-6.87 4.42-.62 3.67-7.21-.77-6.83 4.33-1.06 2.94-7.54-1.45-6.72 4.21-1.48 2.17-7.79-2.11-6.54 4.04-1.9 1.39-7.97-2.75-6.3 3.83-2.29.59-8.07-3.36-6 3.58-2.66-.22-8.09-3.94-5.63 3.3-3-1.02-8.03-4.48-5.21z" fill="url(#prefix__paint1_radial_2_5)"/><path d="M556.7 357.15a1.81 1.81 0 100-3.62 1.81 1.81 0 000 3.62zM638.72 392.21a1.81 1.81 0 100-3.62 1.81 1.81 0 000 3.62zM622.34 427.91a1.81 1.81 0 100-3.62 1.81 1.81 0 000 3.62zM552.73 425.98a1.81 1.81 0 100-3.62 1.81 1.81 0 000 3.62zM539.26 394.12a1.81 1.81 0 100-3.62 1.81 1.81 0 000 3.62zM584.2 441.61a1.81 1.81 0 100-3.62 1.81 1.81 0 000 3.62zM622.92 355.79a1.81 1.81 0 100-3.62 1.81 1.81 0 000 3.62z" fill="#8C734D"/><path d="M609.23 362.22c-3.73-2.25-10.05.22-16.51 5.96-6.33-6.04-12.58-8.82-16.36-6.75-.88.47-1.61 1.21-2.17 2.15l2.56 1.55c.31-.52.67-.88 1.08-1.11 1.82-1 5.64.39 9.72 3.56 1.01.78 2.02 1.67 3.03 2.61a63.39 63.39 0 00-5.59 6.43c-3.05.25-5.93.67-8.59 1.25-1.26-5.79-1.08-10.4.34-12.76l-2.56-1.55c-1.88 3.11-2.08 8.55-.66 15.02-6.37 1.78-11.06 4.51-12.93 7.62l2.56 1.55c1.41-2.34 5.4-4.68 11.09-6.28.73 2.6 1.7 5.35 2.91 8.13-1.27 2.72-2.3 5.4-3.08 7.96-1.31-.43-2.54-.91-3.69-1.42-4.71-2.11-7.73-4.83-7.71-6.91 0-.46.17-.96.49-1.48l-2.56-1.55c-.57.95-.89 1.94-.9 2.95-.06 4.3 5.32 8.52 13.59 11.27-2.04 8.37-1.28 15.08 2.45 17.33 3.73 2.25 10.05-.22 16.51-5.96 6.33 6.04 12.58 8.82 16.36 6.75.88-.47 1.61-1.21 2.18-2.16 1.88-3.11 2.08-8.55.66-15.02 6.37-1.78 11.06-4.51 12.93-7.62.57-.95.89-1.94.9-2.95.06-4.3-5.32-8.52-13.59-11.27 2.04-8.34 1.26-15.06-2.46-17.31v.01zm-16.55 10.12a60.07 60.07 0 013.62 4.27c-1.2-.09-2.41-.16-3.65-.18a89.8 89.8 0 00-3.67 0c1.21-1.46 2.44-2.83 3.71-4.09h-.01zm9.11 12.57c1.02 1.82 1.94 3.61 2.74 5.38-.87 1.78-1.82 3.53-2.86 5.26a69.88 69.88 0 01-3.29 4.96c-1.93.12-3.95.15-6.02.11-2.02-.05-4.02-.19-5.99-.4a67.37 67.37 0 01-3.17-5.11 70.104 70.104 0 01-2.74-5.38c.87-1.78 1.82-3.53 2.86-5.26 1.03-1.71 2.14-3.37 3.29-4.96 1.93-.12 3.95-.15 6.02-.11 2.02.05 4.02.19 5.99.4a72.98 72.98 0 013.17 5.11zm.71-4.56c1.86.31 3.7.71 5.52 1.19-.53 1.7-1.16 3.45-1.89 5.22-.55-1.09-1.12-2.19-1.74-3.27-.61-1.07-1.24-2.12-1.88-3.14h-.01zm5.34 18.87c-1.74.39-3.6.7-5.58.93.66-.99 1.32-2.01 1.96-3.06.64-1.05 1.25-2.13 1.82-3.2.7 1.74 1.3 3.52 1.8 5.33zm-11.85 4.34a56.863 56.863 0 01-3.71 4.09c-1.23-1.31-2.44-2.76-3.62-4.27 1.2.09 2.41.16 3.65.18 1.24.02 2.46.02 3.67 0h.01zm-18.86-22.78c1.74-.39 3.6-.7 5.57-.93-.66.99-1.32 2.01-1.96 3.06-.64 1.05-1.25 2.13-1.82 3.2-.7-1.74-1.3-3.52-1.8-5.33h.01zm1.71 12.46c.55 1.09 1.12 2.19 1.74 3.27.61 1.08 1.23 2.12 1.87 3.13-1.86-.31-3.7-.71-5.52-1.2.54-1.7 1.17-3.45 1.9-5.21l.01.01zm8.21 18.92c-4.15 2.96-7.99 4.18-9.79 3.09-1.8-1.09-2.53-5.06-1.83-10.11.16-1.23.42-2.52.73-3.84 2.64.71 5.5 1.28 8.53 1.67 1.76 2.48 3.59 4.73 5.45 6.71a38.54 38.54 0 01-3.08 2.46l-.01.02zm20.1 3.81c-1.82 1-5.64-.39-9.72-3.56-1-.78-2.02-1.67-3.03-2.61a63.39 63.39 0 005.59-6.43c3.05-.25 5.93-.67 8.59-1.25 1.26 5.79 1.08 10.4-.34 12.76-.32.5-.68.87-1.08 1.09h-.01zm7.43-32.14c4.71 2.11 7.73 4.83 7.71 6.91 0 .46-.17.96-.49 1.48-1.41 2.34-5.4 4.68-11.09 6.28-.73-2.6-1.7-5.35-2.92-8.13 1.27-2.72 2.3-5.4 3.08-7.96 1.32.44 2.56.91 3.7 1.43l.01-.01zm-5.04-8.98c-.16 1.23-.42 2.52-.73 3.84-2.64-.71-5.5-1.28-8.53-1.67-1.76-2.48-3.59-4.73-5.45-6.71 1.03-.91 2.06-1.73 3.09-2.47 4.15-2.96 7.99-4.18 9.79-3.09 1.8 1.1 2.52 5.07 1.83 10.12v-.02z" fill="#705330"/><path d="M597.73 393.17c1.72-2.86.77-6.59-2.13-8.34s-6.65-.85-8.37 2.01c-1.72 2.86-.77 6.59 2.13 8.34s6.65.85 8.37-2.01z" fill="#705330"/><path d="M671.03 347.77c-6.31-2.09-13.73-.34-18.44 4.35-4.71 4.69-6.5 12.1-4.44 18.42-5.24 5.59-10.47 11.18-15.71 16.78 4.27.66 8.55 1.33 12.82 1.99-5.05 3.52-9.03 8.55-11.31 14.27 6.78.45 13.65-.7 19.91-3.34l-15.78 18c9.43 1.59 19.48-.9 27.08-6.7a140.869 140.869 0 00-15.44 24.28c18.82 1.15 37.99-7.37 49.74-22.12s15.77-35.34 10.43-53.43c-5.09-17.26-17.77-31.25-31.5-42.87-13.74-11.62-28.93-21.55-41.63-34.31M378.71 390.95c5.03 17.12 16.74 32.19 32.08 41.32 15.34 9.13 34.17 12.2 51.62 8.44 22.73-4.9 41.5-20.37 58.54-35.26 22.84-4.92 46.67-33.21 33.53-40.95 5.89 4.6 13.4-7.17 6.84-12.84-6.56-5.67-15.5-8.88-24.06-7.48-6.71 1.1-12.66 4.82-18.99 7.29-13.98 5.46-30.3 4.56-43.6-2.39" fill="#6A361B"/><path d="M533.2 345.96c7.56 6.74 12.08 16.78 12.09 26.9 1 .8 2 1.59 3 2.39-4.8 2.19-7.19 8.53-5.03 13.34-2.65 6.52-13.17 6.91-15.55 13.54l33.45 9.12c1.27.35 2.77.65 3.78-.2 1.11-.93.93-2.68.49-4.05-1.42-4.4-4.68-8.17-8.82-10.23 6.35-.36 12.77.57 18.76 2.73 1.14-7.82-5.11-15.95-12.96-16.87 4.6-1.76 9.98-1.3 14.22 1.21-1.17-8.44-7.81-15.86-16.06-17.95 4.57-1.29 9.46-1.46 14.11-.49-3.28-7.96-9.59-14.62-17.36-18.33-7.77-3.71-16.92-4.42-24.11-1.12l-.01.01zM653.23 388.88c1.18-3.42 2.23-7.02 1.76-10.61s-2.87-7.16-6.4-7.91c-3.6-.77-7.11 1.46-10 3.73-4.81 3.77-9.27 7.99-13.31 12.57 6.05 1.62 10.44 2.99 16.64 2.13-6.42 3.73-9.69 8.47-12.88 15.18 6.11.5 10.22 1.97 15.59-1-3.57 6.91-6.24 10.36-12 15.6 8.11 1.61 11.99 4.64 18.37-.61-.2 8.99.66 12.59-6.02 18.61 5.26 2.18 11.2-.17 16.4-2.51 2.24-1.01 4.52-2.04 6.3-3.73 1.78-1.69 2.99-4.18 2.51-6.59-.48-2.4-3.08-4.37-5.42-3.62 3.12-2.31 4.5-6.71 3.26-10.38-1.24-3.67-5.01-6.34-8.88-6.28 1.08-1.66 2.19-3.37 2.62-5.31.43-1.94.06-4.18-1.44-5.48-1.06-.92-2.49-1.24-3.84-1.63-1.35-.39-2.77-.94-3.53-2.12-.76-1.18-.43-3.12.28-.05l-.01.01z" fill="#3B1407"/><path opacity=".31" d="M537.34 389.23c-32.4 15.51-65.88 31.3-101.75 33.18-12.69.66-25.76-.53-37.24-5.98-11.47-5.45-21.15-15.67-23.64-28.13 2.99 21.71 16.86 41.65 36.18 52.01s43.59 10.88 63.34 1.37c24.36-11.75 40.04-36.52 63.12-52.44l-.01-.01z" fill="#4A1F0D"/><path d="M427.57 39.78c-2.88-7.46-10.2-12.15-17.34-15.76-6.29-3.19-13.12-6.02-20.16-5.53-7.75.53-14.76 5.08-20.01 10.81-9.42 10.28-14.02 25.15-10.8 38.72 3.22 13.57 14.7 25.13 28.48 27.26 3.47-11.23 7.42-22.44 13.66-32.41 6.24-9.97 14.98-18.7 26.16-23.09h.01z" fill="#6B3519"/><path d="M600.61 31.23c-15.93-15.96-40.14-19.84-62.66-20.87-24.95-1.14-50.27.25-74.21 7.37-23.94 7.13-46.52 20.32-62.09 39.84-14.96 18.76-22.68 42.08-32.54 63.96-9.86 21.88-23.27 43.82-44.72 54.58 5.32.68 10.63 1.35 15.95 2.03-11.83 6.54-21.85 16.34-28.64 28.03 7.51-4.21 15.02-8.42 22.52-12.63-11.05 16-13.59 37.54-6.56 55.68-2.26-8.15 2.43-17.62 10.28-20.77-5.43 11.71-2.56 26.73 6.8 35.61-1.35-4.52-.72-9.59 1.69-13.64 8.52 16.89 24.48 29.13 41.84 36.64 17.36 7.51 36.23 10.77 54.94 13.6 34.93 5.27 70.29 9.24 105.53 6.79 35.24-2.45 70.57-11.62 100.17-30.89 28.69-18.68 61.82-43.55 57.05-77.45-1.82-12.94-5.51-20.77-11.22-32.53-3.48-7.17-24.65-21.62-28.13-28.79-6.74-13.89-7.22-31.94-14.31-45.65-8.14-15.74-16.83-31.39-28.51-44.72-11.68-13.33-26.65-24.33-23.2-16.22l.02.03z" fill="#663519"/><path d="M585.58 23.47c1.64-8.41 10.13-14.68 18.7-14.46 8.57.22 16.45 6.46 19.33 14.52 2.88 8.07.96 17.48-4.27 24.27-7.89-12.83-21.78-19.22-33.75-24.33h-.01z" fill="#6B3519"/><path d="M565.19 171.71c-12.11-12.85-18.76-29.67-26.36-45.56-7.6-15.89-17.12-31.97-32.48-40.73-21.06-12.01-49.66-6.51-67.07 10.31-17.4 16.82-23.98 42.9-22.22 68.68-25.8 1.77-50.67 14.39-67.24 34.13a76.427 76.427 0 0126.2-5.86c-12.73 7.14-21.86 20.3-24.05 34.66 2.53-4.21 7.3-7 12.23-7.16-.47 11.26-.94 22.53-1.42 33.79 2.31-4.62 6.18-8.45 10.85-10.72 2.3 15.58 6.16 30.94 11.97 43.61 24.46 15.21 98.94 28.38 151.38 21.43-19.02-19.02-27.7-47.69-22.39-73.98 5.31-26.29 24.45-49.41 50.6-62.6z" fill="#A1582E"/><path d="M677.04 255.73c9.73-9.76 19.14-20.18 25-32.64 5.86-12.46 5.94-33.23-2.32-49.92-6.05-12.23-18.76-19.55-24.9-26.17-5.44-5.86-9.6-15.27-13.7-28.91-3.24-10.76-3.94-12.41-7.47-23.08-3.53-10.67-17.61-34.44-26.15-39.99-9.42-6.12-22.22-1.7-27.61 8.17-3.75 6.87-2.55 15.27-1.24 22.98l13.8 81.5c18.97 7.51 37.6 17.75 50.03 33.93s17.37 39.35 14.56 54.14v-.01z" fill="#A0572D"/><path d="M482.07 175.27c11.211 0 20.3-9.792 20.3-21.87 0-12.078-9.089-21.87-20.3-21.87s-20.3 9.792-20.3 21.87c0 12.078 9.089 21.87 20.3 21.87zM637.13 162.32c9.549 0 17.29-8.39 17.29-18.74 0-10.35-7.741-18.74-17.29-18.74s-17.29 8.39-17.29 18.74c0 10.35 7.741 18.74 17.29 18.74z" fill="#000"/><path d="M669.83 262.28c13.26-9.18 19-27.06 15.79-42.87-3.21-15.81-14.3-29.31-28.01-37.8-13.71-8.49-29.84-12.39-45.91-13.82-28.36-2.52-57.68 2.52-82.54 16.4-24.86 13.88-44.93 36.9-53.23 64.13-3.76 12.36-4.98 26.25.78 37.82 6.05 12.14 18.96 19.72 32.23 22.49 13.27 2.77 27.03 1.36 40.47-.44 45.73-6.1 88.4-23.77 120.4-45.91h.02z" fill="#FCE6CB"/><path d="M482.11 30.97c22.83.93 45.23 10.27 61.96 25.83-1.4-9.66-7.01-18.64-15.09-24.13 4.89.56 9.58 2.75 13.14 6.14-.7-3.06-2.14-5.94-4.18-8.32 7.81.79 15.23 4.9 20.05 11.11a36.308 36.308 0 00-7.2-12.18c6.41 1.87 12.12 6.05 15.85 11.59 1.12-4.74-.07-9.97-3.14-13.75 7.4 1.83 14.17 6.09 19 11.98-.86-2.48-1.73-4.96-2.59-7.44 5.66 2.35 10.9 5.71 15.39 9.89-6.74-13.21-19.96-21.98-33.67-27.62-13.72-5.64-28.36-8.73-42.2-14.06 3.59 3.58 6.23 8.1 7.6 12.98-11.01-7.51-24.48-11.33-37.79-10.73 6.87 3.02 12.73 8.26 16.51 14.74-8.67-6.34-20-8.92-30.56-6.95 5.97.62 11.57 4.1 14.78 9.17-4.46-.72-9.19.42-12.84 3.09 4.49 1.2 8.75 3.24 12.49 5.99-3.36-.62-6.97.33-7.52 2.69l.01-.02z" fill="#6A361B"/><path d="M608.51 211.43c5.83-4.22 11.83-8.65 15.35-14.92 3.52-6.28 3.82-14.97-1.26-20.06-4.28-4.28-10.91-4.88-16.96-5.23-11.53-.67-23.48-1.28-34.24 2.91-5.29 2.06-10.46 5.65-12.23 11.05-2.03 6.17.96 12.99 5.31 17.81 10.55 11.7 31.41 17.6 44.03 8.45v-.01z" fill="#2C201D"/><path opacity=".2" d="M602.78 237.18c-4.65 19.99-25.04 33.24-45.41 35.81-20.37 2.57-40.77-3.37-60.27-9.79-6.78-2.23-15.16-4.21-20.29.74-5.46 5.27-3.12 18.08 1.11 24.38 10.28 15.3 20.89 19.65 39.23 21.51 18.34 1.86 44.57-1.52 62.24-6.78 27.59-8.22 48.11-14.57 73.11-28.83 5.32-3.03 16.79-11.3 20.87-15.87 4.09-4.56 12.73-13.6 11.89-19.67-10.49 10.17-31.45 18.35-46 16.95-14.54-1.4-28.31-9.45-36.49-18.45h.01z" fill="#A18F85"/><path opacity=".69" d="M412.36 53.85c-1.09-6.88-5.69-13.18-12.04-16.06-6.35-2.88-14.26-2.13-19.79 2.11-5.53 4.24-8.31 11.87-6.55 18.61 1.22 4.67 4.38 8.64 8.13 11.68 3.75 3.04 8.08 5.25 12.38 7.44a18.509 18.509 0 01-1.6-8.62c1.45-.64 3.29-.29 4.4.84-.58-2.28-1.16-4.56-1.74-6.83l3.89.47c-1.93-2.9-2.99-6.37-3.03-9.85 5.37-2.1 11.88-.91 15.93.21h.02zM612.03 42.59c.39-5.51.75-11.22-1.18-16.39-.67-1.8-1.7-3.59-3.37-4.54-2.29-1.3-5.29-.67-7.45.85s-3.65 3.78-5.1 5.99c6.36 4.04 12.13 9 17.1 14.1v-.01z" fill="#A0572D"/><path d="M649.18 192.87c22.6-20.46 52.38-33.15 82.8-35.26-29.94 5.01-58.44 17.14-82.8 35.26zM657.82 203.35c28.8-11.95 61.23-15.51 91.94-10.07-30.98-2.53-62.24.89-91.94 10.07zM661.12 220.52c24.45 1.56 47.86 16.64 59.36 38.28-13.95-19.84-35.53-33.77-59.36-38.28zM670.69 211.85c23.62-2.18 53.35-.7 67.37 21.51-16.5-20.15-43.45-20.55-67.37-21.51zM427.57 186.68c31.54-1.05 63.42 4.78 92.54 16.94a383.3 383.3 0 00-92.54-16.94zM422.93 226.43c32.04-13.43 67.88-18.22 102.3-13.43-34.61-1.87-69.34 2.75-102.3 13.43z" fill="#000"/><path d="M599.89 242.18c-6.77 10.35-16.9 18.83-28.78 24.1-1.81.81-3.96 1.93-3.94 3.77.02 2.23 3.1 3.17 5.53 3.39 19.35 1.7 39.32-3.48 54.8-14.21-12.17-.16-23.48-9.14-27.61-17.06v.01z" fill="#6E3544"/><path d="M424.73 257.55c30.02-18.62 65.63-28.46 100.95-27.88-35.14 2.34-69.59 11.84-100.95 27.88z" fill="#000"/><path d="M583.85 261c1.17 8.95 1.5 18 .98 27.01 7.82.96 15.9-.34 23.02-3.71 1.75-.83 3.46-1.8 4.78-3.21 2.91-3.14 3.31-7.79 3.55-12.06.2-3.54.39-7.22-.91-10.52-1.43-3.66-4.47-6.39-7.14-9.28-2.67-2.89-5.15-6.41-5-10.33-3.63 9.22-9.97 17.37-19.29 22.11l.01-.01z" fill="#F5F5F5"/><path d="M526.07 239.53c-38 15.58-70.91 42.21-94.08 76.07 20.72-35.55 54.99-63.23 94.08-76.07z" fill="#000"/><path d="M602.24 215.82c5.38 16.38-2.59 35.08-15.98 45.94s-31.11 15.01-48.34 15.79c-18.47.84-38.87-2.77-50.74-16.95" fill="#FCE6CB"/><path d="M602.24 215.82c6.84 19.51-4.91 41.31-21.99 51.29-16.87 10.26-38.75 12.86-58.13 10.75-13.1-1.59-26.58-6.62-34.95-17.26 8.91 9.9 22.16 14.44 35.13 15.66 19.33 1.59 39.99-.88 56.96-10.77 16.76-9.69 28.47-30.29 22.97-49.68l.01.01z" fill="#A18F85"/><path d="M603.23 235.46c-1.33 8.09 3.35 16.38 10.19 20.91 6.84 4.53 15.42 5.74 23.59 5.15 12.25-.89 24.2-5.66 33.69-13.47" fill="#FCE6CB"/><path d="M603.23 235.46c-.72 7.15 2.94 14 8.3 18.46 11.29 8.85 27.17 7.73 40.22 3.75 6.78-2.14 13.17-5.44 18.95-9.62-5.29 4.84-11.58 8.7-18.42 11.16-10.23 3.68-21.78 4.92-32.25 1.43-10.34-3.26-19.19-14-16.8-25.18z" fill="#A18F85"/><path d="M487.17 149.05a5.47 5.47 0 100-10.94 5.47 5.47 0 000 10.94zM639.36 140.16a5.47 5.47 0 100-10.94 5.47 5.47 0 000 10.94z" fill="#F2F2F2"/><path d="M599.41 247.26c1.09 9.16 1.41 18.41.97 27.63 2.6-10.31 2.8-23.19 1.81-33.78-1.13 1.4-1.63 4.94-2.78 6.15z" fill="#D9D9D9"/><defs><radialGradient id="prefix__paint0_radial_2_5" cx="0" cy="0" r="1" gradientUnits="userSpaceOnUse" gradientTransform="matrix(.33999 0 0 .34 563.26 323.92)"><stop stop-color="#fff"/><stop offset="1"/></radialGradient><radialGradient id="prefix__paint1_radial_2_5" cx="0" cy="0" r="1" gradientUnits="userSpaceOnUse" gradientTransform="translate(589.12 393.51) scale(70.62)"><stop stop-color="#C49B60"/><stop offset=".35" stop-color="#C4995D"/><stop offset=".59" stop-color="#C49453"/><stop offset=".81" stop-color="#C48B44"/><stop offset=".99" stop-color="#C48030"/></radialGradient></defs></svg>